<?xml version="1.0" standalone="no"?>
<!DOCTYPE svg PUBLIC "-//W3C//DTD SVG 20010904//EN"
 "http://www.w3.org/TR/2001/REC-SVG-20010904/DTD/svg10.dtd">
<svg version="1.0" xmlns="http://www.w3.org/2000/svg"
 width="2402.000000pt" height="1801.000000pt" viewBox="0 0 2402.000000 1801.000000"
 preserveAspectRatio="xMidYMid meet">
<metadata>
Created by potrace 1.15, written by Peter Selinger 2001-2017
</metadata>
<g transform="translate(0.000000,1801.000000) scale(0.100000,-0.100000)"
fill="#000000" stroke="none">
<path d="M12810 13574 c0 -5 -23 -7 -51 -5 -40 2 -54 -1 -61 -13 -6 -10 -23
-16 -48 -16 -29 0 -40 -4 -40 -15 0 -11 -12 -15 -45 -15 -33 0 -45 -4 -45 -15
0 -11 -12 -15 -45 -15 -33 0 -45 -4 -45 -15 0 -11 -12 -15 -45 -15 -33 0 -45
-4 -45 -15 0 -11 -12 -15 -45 -15 -25 0 -45 -4 -45 -10 0 -5 -18 -10 -41 -10
-33 0 -42 -4 -46 -21 -5 -17 -12 -20 -47 -18 -33 3 -41 0 -40 -14 2 -14 -7
-17 -42 -17 -24 0 -44 -4 -44 -9 0 -6 -19 -11 -42 -13 -28 -2 -42 -7 -41 -15
2 -9 -12 -13 -47 -13 -27 0 -49 -3 -49 -7 4 -26 -4 -33 -41 -33 -22 0 -40 -4
-40 -10 0 -6 -27 -10 -60 -10 -47 0 -60 -3 -60 -15 0 -11 -12 -15 -45 -15 -33
0 -45 -4 -45 -15 0 -11 -12 -15 -45 -15 -31 0 -44 -4 -42 -12 1 -9 -13 -14
-40 -16 -29 -2 -43 -8 -43 -18 0 -10 -12 -14 -44 -14 -30 0 -46 -5 -50 -15 -3
-10 -19 -15 -46 -15 -29 0 -40 -4 -40 -15 0 -11 -12 -15 -45 -15 -33 0 -45 -4
-45 -15 0 -11 -12 -15 -45 -15 -30 0 -45 -4 -45 -13 0 -9 -12 -11 -41 -9 -34
4 -41 1 -46 -17 -4 -17 -13 -21 -49 -21 -24 0 -44 -4 -44 -10 0 -5 -13 -10
-29 -10 -37 0 -62 -10 -55 -21 3 -5 -22 -9 -55 -9 -54 0 -61 -2 -61 -20 0 -17
-7 -20 -45 -20 -25 0 -45 -4 -45 -10 0 -5 -18 -10 -40 -10 -27 0 -43 -5 -46
-15 -4 -10 -20 -15 -46 -15 -30 0 -41 -4 -45 -18 -3 -14 -12 -17 -44 -14 -31
3 -39 1 -39 -12 0 -12 -10 -16 -40 -16 -27 0 -43 -5 -46 -15 -4 -10 -20 -15
-51 -15 -25 0 -42 -4 -38 -9 3 -6 -16 -11 -42 -13 -39 -2 -47 -6 -45 -20 2
-15 -5 -18 -43 -18 -33 0 -45 -4 -45 -15 0 -11 -12 -15 -45 -15 -25 0 -45 -4
-45 -10 0 -5 -18 -10 -41 -10 -32 0 -42 -4 -46 -20 -4 -17 -14 -20 -58 -20
-38 0 -55 -4 -59 -15 -3 -10 -19 -15 -46 -15 -22 0 -40 -4 -40 -10 0 -5 -20
-10 -45 -10 -38 0 -45 -3 -45 -20 0 -17 -7 -20 -45 -20 -25 0 -45 -4 -45 -10
0 -5 -18 -10 -40 -10 -27 0 -43 -5 -46 -15 -4 -10 -20 -15 -50 -15 -36 0 -44
-3 -44 -18 0 -15 -6 -17 -37 -14 -25 3 -40 0 -48 -11 -6 -9 -29 -17 -51 -19
-25 -2 -38 -8 -37 -15 2 -9 -11 -13 -42 -13 -25 0 -45 -4 -45 -10 0 -5 -13
-10 -29 -10 -39 0 -61 -9 -61 -26 0 -10 -12 -14 -39 -14 -25 0 -41 -5 -45 -15
-4 -11 -21 -15 -66 -15 -33 0 -60 -4 -60 -9 0 -6 -19 -11 -42 -13 -30 -2 -43
-8 -43 -18 0 -10 -13 -16 -42 -18 -29 -2 -43 -8 -43 -18 0 -10 -12 -14 -40
-14 -22 0 -40 -4 -40 -10 0 -5 -20 -10 -44 -10 -35 0 -45 -4 -49 -20 -4 -16
-14 -20 -46 -20 -30 0 -41 -4 -41 -15 0 -11 -12 -15 -45 -15 -25 0 -45 -4 -45
-10 0 -5 -20 -10 -45 -10 -33 0 -45 -4 -45 -15 0 -11 -11 -15 -40 -15 -22 0
-42 -6 -47 -13 -4 -8 -26 -17 -48 -20 -22 -4 -41 -11 -43 -17 -2 -5 -24 -10
-48 -10 -32 0 -44 -4 -44 -15 0 -11 -11 -15 -40 -15 -29 0 -40 -4 -40 -15 0
-12 -13 -15 -60 -15 -47 0 -60 -3 -60 -15 0 -11 -12 -15 -45 -15 -25 0 -45 -4
-45 -10 0 -5 -13 -10 -29 -10 -39 0 -61 -9 -61 -25 0 -9 -15 -15 -42 -17 -28
-2 -42 -7 -41 -15 2 -9 -11 -13 -42 -13 -25 0 -45 -4 -45 -10 0 -5 -18 -10
-40 -10 -30 0 -42 -5 -51 -21 -9 -18 -17 -20 -50 -15 -34 6 -39 4 -39 -14 0
-17 -7 -20 -40 -20 -22 0 -40 -4 -40 -10 0 -5 -20 -10 -45 -10 -33 0 -45 -4
-45 -15 0 -11 -12 -15 -44 -15 -35 0 -45 -4 -49 -20 -4 -16 -14 -20 -46 -20
-23 0 -41 -4 -41 -10 0 -5 -25 -10 -55 -10 -42 0 -55 -3 -55 -15 0 -11 -12
-15 -44 -15 -30 0 -46 -5 -50 -15 -3 -10 -19 -15 -46 -15 -29 0 -40 -4 -40
-15 0 -11 -12 -15 -45 -15 -33 0 -45 -4 -45 -15 0 -11 -12 -15 -45 -15 -35 0
-45 -4 -45 -16 0 -14 -8 -16 -41 -11 -35 5 -42 2 -46 -14 -4 -15 -14 -19 -49
-19 -32 0 -44 -4 -44 -15 0 -11 -12 -15 -46 -15 -27 0 -43 -4 -39 -10 4 -6
-12 -10 -39 -10 -39 0 -46 -3 -46 -20 0 -17 -7 -20 -45 -20 -25 0 -45 -4 -45
-9 0 -6 -19 -11 -42 -13 -28 -2 -42 -7 -40 -15 1 -9 -16 -13 -59 -13 -52 0
-62 -3 -66 -20 -4 -16 -14 -20 -50 -20 -27 0 -42 -4 -38 -10 4 -6 -12 -10 -39
-10 -34 0 -46 -4 -46 -15 0 -11 -12 -15 -45 -15 -25 0 -45 -4 -45 -10 0 -5
-13 -10 -29 -10 -41 0 -61 -9 -54 -26 4 -11 -5 -14 -41 -14 -34 0 -46 -4 -46
-15 0 -11 -12 -15 -45 -15 -25 0 -45 -4 -45 -10 0 -5 -18 -10 -41 -10 -32 0
-42 -4 -46 -20 -4 -16 -14 -20 -49 -20 -32 0 -44 -4 -44 -15 0 -11 -11 -15
-40 -15 -22 0 -40 -4 -40 -10 0 -5 -20 -10 -45 -10 -38 0 -45 -3 -45 -20 0
-18 -7 -20 -60 -20 -47 0 -60 -3 -60 -15 0 -11 -12 -15 -45 -15 -25 0 -45 -4
-45 -10 0 -5 -20 -10 -45 -10 -38 0 -45 -3 -45 -20 0 -17 -7 -20 -45 -20 -25
0 -45 -4 -45 -9 0 -6 -19 -11 -42 -13 -28 -2 -42 -7 -40 -15 1 -9 -12 -13 -43
-13 -33 0 -45 -4 -45 -15 0 -11 -12 -15 -45 -15 -33 0 -45 -4 -45 -15 0 -11
-11 -15 -40 -15 -27 0 -43 -5 -46 -15 -4 -10 -20 -15 -45 -15 -21 0 -39 -4
-39 -10 0 -5 -18 -10 -41 -10 -32 0 -42 -4 -46 -20 -4 -16 -14 -20 -49 -20
-32 0 -44 -4 -44 -15 0 -11 -12 -15 -45 -15 -25 0 -45 -4 -45 -10 0 -5 -26
-10 -57 -12 -44 -2 -58 -7 -58 -18 0 -11 -12 -15 -46 -15 -35 0 -46 -4 -45
-15 1 -11 -11 -16 -41 -18 -24 -2 -43 -7 -43 -13 0 -5 -20 -9 -44 -9 -34 0
-45 -4 -48 -18 -4 -15 -13 -17 -42 -14 -31 4 -38 1 -43 -17 -4 -17 -13 -21
-50 -21 -27 0 -42 -4 -38 -10 4 -6 -12 -10 -39 -10 -34 0 -46 -4 -46 -15 0
-11 -12 -15 -45 -15 -33 0 -45 -4 -45 -15 0 -11 -12 -15 -45 -15 -33 0 -45 -4
-45 -15 0 -11 -12 -15 -45 -15 -33 0 -45 -4 -45 -15 0 -11 -12 -15 -45 -15
-33 0 -45 -4 -45 -15 0 -10 -15 -15 -57 -17 -40 -2 -57 -7 -55 -15 1 -9 -12
-13 -43 -13 -25 0 -45 -4 -45 -10 0 -5 -18 -10 -41 -10 -32 0 -42 -4 -46 -20
-4 -16 -14 -20 -49 -20 -32 0 -44 -4 -44 -15 0 -11 -11 -15 -40 -15 -22 0 -40
-4 -40 -10 0 -5 -20 -10 -44 -10 -34 0 -45 -4 -48 -17 -2 -14 -12 -17 -44 -15
-35 3 -42 0 -47 -17 -4 -16 -13 -21 -40 -21 -20 0 -39 -4 -42 -10 -3 -5 -24
-10 -46 -10 -28 0 -39 -4 -39 -15 0 -11 -12 -15 -44 -15 -30 0 -46 -5 -50 -15
-3 -10 -19 -15 -46 -15 -29 0 -40 -4 -40 -15 0 -8 -7 -15 -15 -15 -8 0 -15 -7
-15 -15 0 -10 -10 -15 -30 -15 -20 0 -30 -5 -30 -15 0 -8 -7 -15 -15 -15 -8 0
-15 -7 -15 -15 0 -10 -10 -15 -30 -15 -20 0 -30 -5 -30 -15 0 -8 -6 -15 -14
-15 -8 0 -17 -7 -20 -16 -3 -8 -10 -12 -16 -9 -5 3 -10 -3 -10 -14 0 -12 -4
-21 -10 -21 -15 0 -50 -33 -44 -42 3 -4 -2 -8 -10 -8 -9 0 -16 -7 -16 -16 0
-9 -9 -18 -20 -21 -11 -3 -20 -9 -20 -14 0 -5 -11 -9 -25 -9 -15 0 -25 -6 -25
-14 0 -7 -9 -16 -20 -19 -11 -3 -20 -13 -20 -22 0 -9 -4 -13 -10 -10 -6 4 -10
-7 -10 -24 0 -20 -5 -31 -14 -31 -8 0 -16 -7 -20 -15 -3 -8 -12 -15 -20 -15
-10 0 -13 -6 -10 -15 4 -9 0 -15 -10 -15 -9 0 -16 -7 -16 -15 0 -9 -9 -15 -21
-15 -19 0 -21 -4 -16 -30 4 -17 2 -30 -3 -30 -19 0 -50 -40 -50 -65 0 -16 -6
-25 -15 -25 -9 0 -15 -9 -15 -25 0 -15 -6 -25 -14 -25 -15 0 -32 -37 -23 -47
7 -6 -30 -43 -43 -43 -5 0 -10 -20 -10 -45 0 -33 -4 -45 -15 -45 -11 0 -15
-12 -15 -45 0 -33 -4 -45 -15 -45 -11 0 -15 -12 -15 -45 0 -35 -4 -45 -16 -45
-13 0 -15 -8 -12 -39 3 -32 0 -41 -15 -45 -16 -4 -18 -16 -16 -131 0 -69 -2
-129 -5 -132 -9 -9 -7 -363 2 -363 4 0 6 -50 4 -111 -3 -100 -2 -111 15 -115
15 -4 17 -13 15 -55 -5 -58 4 -102 18 -94 6 4 10 -12 10 -38 0 -31 5 -47 15
-51 9 -3 15 -19 15 -41 0 -22 6 -38 15 -41 10 -4 15 -20 15 -45 0 -28 4 -39
15 -39 10 0 15 -11 15 -35 0 -23 5 -35 14 -35 9 0 12 -7 9 -19 -3 -13 2 -23
16 -30 13 -7 21 -22 21 -36 0 -16 6 -25 15 -25 8 0 15 -7 15 -15 0 -8 5 -15
10 -15 6 0 10 -13 10 -30 0 -23 4 -30 20 -30 11 0 20 -7 20 -15 0 -8 7 -15 15
-15 10 0 15 -10 15 -30 0 -16 5 -30 11 -30 20 0 44 -33 41 -57 -2 -15 3 -25
15 -30 29 -11 43 -30 43 -58 0 -18 6 -29 20 -32 11 -3 20 -9 20 -14 0 -5 7 -9
15 -9 8 0 15 -7 15 -15 0 -8 5 -15 10 -15 6 0 10 -6 10 -14 0 -8 9 -18 20 -21
11 -3 20 -11 20 -16 0 -5 7 -9 16 -9 8 0 12 -5 9 -10 -3 -6 1 -13 9 -16 9 -3
16 -12 16 -20 0 -9 11 -14 30 -14 20 0 30 -5 30 -15 0 -8 5 -15 10 -15 13 0
50 -37 50 -51 0 -5 5 -7 11 -4 6 4 13 -2 16 -14 3 -12 12 -21 19 -21 8 0 14
-4 14 -10 0 -5 11 -10 25 -10 14 0 28 -7 31 -15 4 -8 12 -15 20 -15 8 0 14 -9
14 -20 0 -16 7 -20 30 -20 17 0 30 -4 30 -10 0 -5 11 -10 25 -10 16 0 25 -6
25 -15 0 -11 12 -15 44 -15 35 0 45 -4 49 -20 3 -14 14 -20 31 -20 14 0 26 -4
26 -10 0 -5 14 -10 30 -10 20 0 30 -5 30 -15 0 -11 12 -15 46 -15 30 0 43 -4
38 -11 -8 -14 14 -29 44 -29 12 0 22 -4 22 -10 0 -5 20 -10 45 -10 33 0 45 -4
45 -15 0 -9 9 -15 24 -15 13 0 27 -7 30 -16 5 -12 16 -15 46 -12 33 3 40 0 40
-14 0 -13 8 -18 29 -18 16 0 31 -6 35 -15 3 -8 17 -15 31 -15 14 0 25 -4 25
-9 0 -6 19 -11 43 -13 29 -2 42 -8 42 -18 0 -10 12 -16 33 -18 18 -2 30 -8 27
-13 -4 -5 12 -9 34 -9 42 0 81 23 81 48 0 9 6 12 16 8 8 -3 13 -2 10 2 -3 5
11 21 30 37 19 16 34 35 34 42 0 8 4 11 10 8 5 -3 10 0 10 8 0 8 9 17 21 20
12 3 19 10 16 14 -3 5 9 15 26 22 54 21 62 27 65 52 2 13 15 33 28 44 13 11
24 26 24 33 0 7 9 12 20 12 17 0 20 7 20 45 0 45 0 45 -35 45 -24 0 -35 5 -35
15 0 11 -11 15 -39 15 -25 0 -41 5 -45 15 -3 9 -18 15 -36 15 -20 0 -30 5 -30
15 0 11 -12 15 -46 15 -38 0 -45 3 -40 16 5 13 1 15 -24 12 -24 -4 -30 -1 -30
14 0 15 -8 18 -45 18 -33 0 -45 4 -45 15 0 10 -10 15 -30 15 -16 0 -30 5 -30
10 0 6 -18 10 -41 10 -32 0 -42 4 -46 19 -3 13 -12 18 -28 16 -16 -1 -25 4
-28 16 -4 14 -14 19 -37 19 -18 0 -29 4 -25 10 4 6 -12 10 -39 10 -34 0 -46 4
-46 15 0 10 -10 15 -29 15 -20 0 -30 6 -34 20 -4 16 -14 20 -46 20 -23 0 -41
5 -41 10 0 6 -18 10 -40 10 -29 0 -40 4 -40 15 0 8 -9 15 -19 15 -28 0 -52 11
-45 21 3 5 -9 9 -25 9 -21 0 -31 5 -31 15 0 10 -10 15 -30 15 -20 0 -30 5 -30
15 0 8 -9 15 -20 15 -11 0 -20 7 -20 15 0 9 -9 15 -25 15 -16 0 -25 6 -25 15
0 8 -9 15 -20 15 -11 0 -20 3 -20 8 0 4 -10 12 -22 17 -13 6 -22 16 -21 22 1
6 -5 10 -15 9 -9 0 -16 5 -14 12 1 8 -7 16 -18 19 -11 3 -20 9 -20 14 0 5 -7
9 -15 9 -8 0 -15 6 -15 14 0 8 -7 16 -15 20 -8 3 -15 12 -15 21 0 8 -7 15 -15
15 -8 0 -15 5 -15 10 0 6 -7 10 -15 10 -8 0 -15 7 -15 15 0 8 -4 15 -9 15 -5
0 -11 8 -15 18 -3 9 -14 31 -24 47 -10 17 -22 42 -26 58 -3 15 -13 27 -22 27
-14 0 -16 9 -12 53 3 28 3 47 1 40 -2 -7 -11 -9 -19 -6 -10 4 -14 23 -14 74 0
39 -4 69 -10 69 -6 0 -10 45 -10 114 0 102 -10 150 -23 114 -10 -30 -19 113
-16 267 4 146 6 168 22 176 14 8 17 24 17 94 0 50 4 85 10 85 6 0 10 22 10 49
0 31 5 53 15 61 8 7 15 27 15 46 0 23 6 37 20 44 13 7 20 21 20 41 0 18 4 28
10 24 6 -4 10 8 10 28 0 19 6 40 14 47 8 6 16 21 18 33 2 12 10 22 18 22 9 0
14 8 12 18 -2 9 4 20 13 23 8 3 15 14 15 23 0 9 11 28 25 43 14 15 25 32 25
38 0 5 7 10 16 10 8 0 12 5 9 10 -3 6 -1 10 4 10 6 0 11 7 11 15 0 9 7 18 15
21 8 4 15 12 15 20 0 8 7 14 15 14 8 0 15 5 15 10 0 6 7 10 15 10 8 0 15 5 15
11 0 16 48 59 66 59 8 0 13 4 10 9 -3 5 3 11 14 14 11 3 20 11 20 19 0 7 18
21 40 31 22 9 40 21 40 27 0 5 11 10 25 10 16 0 25 6 25 15 0 15 10 19 43 15
9 -1 16 4 15 11 -2 7 10 16 27 19 17 3 29 11 27 18 -1 8 11 12 33 12 19 0 35
4 35 9 0 5 18 12 40 16 22 4 38 12 37 18 -1 7 15 13 41 15 28 2 42 8 42 18 0
10 13 14 46 14 27 0 43 4 39 10 -4 6 9 10 32 10 39 0 63 10 66 26 1 5 20 9 43
9 30 0 41 4 40 15 -1 10 13 17 44 21 25 3 41 7 35 9 -5 2 13 6 40 9 32 4 49
10 48 18 -3 15 38 27 72 21 13 -3 24 -2 23 1 -3 25 6 31 42 31 22 0 40 5 40
10 0 6 20 10 45 10 33 0 45 4 45 15 0 11 12 15 45 15 31 0 44 4 43 13 -2 7 11
13 34 15 20 2 42 10 48 18 7 8 30 14 52 14 25 0 41 5 44 15 4 10 20 15 50 15
30 0 43 4 42 13 -2 8 12 13 40 15 28 2 42 8 42 18 0 10 12 14 45 14 25 0 45 5
45 10 0 6 15 10 33 11 30 0 84 17 62 18 -24 3 23 21 53 21 20 0 35 6 38 15 4
10 20 15 45 15 21 0 39 5 39 10 0 6 17 10 38 10 26 0 43 7 56 21 14 17 25 20
51 16 27 -4 34 -2 38 14 4 14 14 19 39 19 19 0 38 4 44 9 5 5 27 11 49 13 25
2 39 8 37 16 -1 8 14 12 50 12 28 0 48 3 45 7 -13 13 16 33 49 33 19 0 34 4
34 9 0 6 21 11 48 13 31 2 46 7 44 16 -1 8 13 12 48 12 35 0 49 4 48 13 -2 8
12 13 39 15 29 2 43 8 43 18 0 10 12 14 45 14 33 0 45 4 45 15 0 11 11 15 41
15 23 0 47 7 55 15 9 8 33 15 54 15 31 0 38 3 34 15 -5 12 2 15 34 15 23 0 44
5 47 10 3 6 19 10 35 10 36 0 61 10 54 21 -3 5 17 9 44 9 41 0 51 3 55 20 4
15 14 20 39 20 19 0 38 4 44 9 5 5 27 11 49 13 25 2 39 8 37 16 -1 8 13 12 47
12 42 0 51 3 56 21 6 17 13 20 45 17 23 -2 38 1 37 7 -1 5 18 12 43 15 29 3
44 10 42 18 -1 8 13 12 49 12 27 0 48 4 45 9 -7 10 27 21 67 21 16 0 26 5 25
13 -2 7 12 13 37 15 22 2 44 10 48 18 5 9 24 14 53 14 28 0 43 4 39 10 -4 6 8
11 29 11 58 2 61 3 61 19 0 10 13 16 40 18 22 2 44 10 48 18 5 8 24 14 47 14
22 0 40 4 40 9 0 6 21 11 48 13 34 2 47 7 47 18 0 10 13 16 43 18 23 2 42 7
42 11 0 5 19 11 42 14 24 3 44 11 46 16 2 6 24 11 48 11 31 0 44 4 44 14 0 17
22 26 61 26 16 0 29 5 29 10 0 6 15 10 34 10 42 0 68 9 60 21 -3 5 13 9 36 9
24 0 48 7 56 15 9 8 31 15 50 15 24 0 34 5 34 15 0 11 11 15 40 15 27 0 43 5
46 15 4 10 20 15 50 15 24 0 44 5 44 10 0 6 16 10 35 10 23 0 41 7 52 20 11
13 30 20 51 20 20 0 35 6 38 15 4 10 20 15 50 15 24 0 44 5 44 10 0 6 18 10
40 10 29 0 42 5 50 20 8 15 21 20 49 20 25 0 41 5 45 15 3 9 19 15 41 15 19 0
35 4 35 9 0 6 21 11 48 13 29 2 46 7 45 15 -3 15 50 27 78 18 14 -5 19 -3 15
3 -8 14 25 32 58 32 14 0 26 5 26 10 0 6 20 10 45 10 33 0 45 4 45 15 0 11 12
15 50 15 35 0 49 4 47 13 -1 8 13 13 41 15 28 2 42 8 42 18 0 10 12 14 44 14
24 0 46 5 48 11 2 6 25 13 50 16 27 3 46 10 45 17 -1 6 17 12 46 14 33 2 47 7
47 18 0 10 12 14 40 14 22 0 40 5 40 10 0 6 17 10 38 10 31 0 86 19 57 20 -29
1 26 20 58 20 26 0 37 4 37 15 0 11 12 15 46 15 26 0 43 4 39 9 -3 6 16 11 42
13 32 2 47 7 46 16 -3 13 10 15 67 12 19 -1 32 2 28 6 -14 14 14 34 48 34 19
0 34 5 34 10 0 6 20 10 45 10 33 0 45 4 45 15 0 11 12 15 51 15 28 0 48 4 44
9 -7 13 11 23 48 25 17 1 33 8 35 14 2 7 23 12 48 12 32 0 44 4 44 15 0 11 12
15 51 15 27 0 48 4 45 9 -7 11 18 21 55 21 19 0 29 5 29 15 0 11 12 15 44 15
30 0 46 5 50 15 4 10 20 15 51 15 27 0 44 4 40 10 -7 11 30 22 65 18 16 -2 25
2 25 12 0 10 13 16 43 18 23 2 42 7 42 13 0 5 15 9 34 9 42 0 68 9 60 21 -3 5
14 9 38 9 32 0 46 5 56 20 8 14 23 20 47 20 19 0 35 5 35 10 0 6 20 10 45 10
33 0 45 4 45 15 0 11 12 15 51 15 27 0 48 4 45 8 -9 15 41 35 68 28 20 -5 24
-3 20 9 -5 12 3 15 40 15 34 0 46 4 46 15 0 11 11 15 41 15 23 0 47 7 55 15 9
8 31 15 50 15 24 0 34 5 34 15 0 11 11 15 40 15 27 0 43 5 46 15 4 11 21 15
56 15 30 0 47 4 43 10 -4 6 11 10 38 10 36 0 46 4 50 20 4 15 14 20 40 20 19
0 40 7 47 15 7 9 29 15 51 15 22 0 39 5 39 10 0 6 20 10 44 10 35 0 45 4 49
20 4 16 14 20 46 20 23 0 41 5 41 10 0 6 18 10 40 10 27 0 43 5 46 15 4 10 20
15 50 15 32 0 44 4 44 15 0 16 12 18 67 15 26 -1 32 2 27 14 -5 13 2 16 40 16
34 0 46 4 46 15 0 11 12 15 45 15 25 0 45 4 45 9 0 5 22 12 50 16 29 4 49 12
47 18 -1 7 14 13 36 15 22 2 41 10 44 18 3 9 20 14 49 14 24 0 44 4 44 9 0 6
21 11 48 13 34 2 47 7 47 18 0 10 12 16 38 18 22 2 41 10 44 18 3 9 20 14 49
14 24 0 44 5 44 10 0 6 20 10 44 10 36 0 45 4 49 21 5 19 11 21 50 17 36 -4
44 -2 43 11 -1 12 10 17 42 19 23 2 42 7 42 13 0 5 20 9 45 9 33 0 45 4 45 15
0 16 2 16 100 17 94 0 100 0 100 -17 0 -11 12 -15 46 -15 27 0 43 -4 39 -10
-4 -6 9 -10 33 -10 35 0 70 -19 58 -31 -3 -2 13 -3 35 -1 34 4 41 1 46 -17 4
-17 13 -21 49 -21 24 0 44 -4 44 -10 0 -5 18 -10 39 -10 25 0 41 -5 44 -14 3
-8 22 -16 42 -18 19 -2 35 -7 34 -12 -1 -15 24 -26 64 -26 20 0 37 -4 37 -10
0 -5 18 -10 39 -10 25 0 41 -5 44 -14 3 -8 22 -16 44 -18 23 -2 37 -8 36 -15
-2 -7 16 -15 42 -19 25 -3 45 -10 45 -15 0 -5 20 -9 44 -9 29 0 46 -5 49 -14
3 -8 22 -16 44 -18 24 -2 37 -8 35 -16 -1 -7 8 -12 25 -11 49 3 63 -1 63 -16
0 -11 12 -15 46 -15 27 0 43 -4 39 -10 -6 -9 15 -16 65 -22 14 -2 24 -8 23
-13 -1 -6 15 -9 38 -7 34 4 41 1 46 -17 4 -17 13 -21 50 -21 27 0 42 -4 38
-10 -4 -6 9 -10 33 -10 22 0 45 -6 52 -14 6 -8 28 -16 48 -18 25 -2 37 -8 37
-18 0 -10 11 -16 30 -17 17 0 38 -2 48 -2 10 -1 15 -5 12 -11 -4 -6 11 -10 38
-10 30 0 47 -5 50 -14 3 -8 22 -16 44 -18 24 -2 37 -8 35 -15 -1 -9 10 -13 32
-13 42 0 68 -9 60 -21 -3 -5 15 -9 40 -9 33 0 46 -4 46 -14 0 -10 14 -16 43
-18 26 -2 41 -7 40 -15 -2 -8 6 -11 25 -7 19 4 34 -1 49 -15 15 -14 35 -21 63
-21 27 0 39 -4 38 -12 -2 -8 10 -14 32 -16 19 -1 44 -7 55 -12 11 -5 34 -11
50 -12 21 -2 30 -8 29 -20 -2 -15 7 -18 47 -18 34 0 48 -4 47 -12 -2 -9 12
-14 40 -16 23 -2 42 -7 42 -12 0 -5 19 -10 43 -12 33 -2 41 -7 39 -20 -2 -12
2 -16 13 -12 21 9 87 -5 80 -17 -4 -5 11 -9 35 -9 27 0 43 -5 46 -15 4 -10 20
-15 46 -15 32 0 39 -3 34 -15 -4 -12 4 -15 40 -15 30 0 46 -5 50 -15 4 -10 20
-15 45 -15 26 0 42 -5 45 -15 4 -10 20 -15 45 -15 26 0 42 -5 45 -15 4 -9 19
-15 40 -15 22 0 37 -6 40 -15 4 -10 20 -15 50 -15 30 0 43 -4 41 -12 -1 -9 13
-14 41 -16 23 -2 42 -7 42 -13 0 -5 15 -9 34 -9 32 0 63 -20 50 -33 -4 -3 13
-5 36 -4 30 1 44 -3 51 -16 7 -12 23 -17 49 -17 22 0 40 -4 40 -10 0 -5 18
-10 40 -10 36 0 45 -6 42 -31 -1 -4 7 -5 18 -2 25 7 72 -5 65 -16 -7 -12 19
-21 61 -21 19 0 34 -4 34 -10 0 -5 18 -10 39 -10 25 0 41 -5 45 -15 3 -9 18
-15 40 -15 19 0 39 -6 43 -13 4 -8 26 -17 48 -20 22 -4 41 -11 43 -17 2 -5 21
-10 42 -10 24 0 40 -5 43 -14 3 -8 22 -16 44 -18 24 -2 37 -8 36 -15 -2 -9 11
-13 42 -13 33 0 45 -4 45 -15 0 -11 12 -15 45 -15 25 0 45 -4 45 -10 0 -5 12
-10 26 -10 32 0 66 -18 58 -31 -3 -6 4 -7 19 -3 33 8 67 -3 67 -22 0 -10 13
-14 45 -14 25 0 45 -4 45 -10 0 -5 15 -10 34 -10 18 0 39 -6 46 -14 6 -8 28
-16 48 -18 25 -2 37 -8 37 -18 0 -11 13 -16 48 -18 26 -2 45 -7 42 -13 -4 -5
13 -9 39 -9 33 0 46 -4 46 -14 0 -10 13 -16 40 -18 22 -2 40 -7 39 -12 -1 -15
24 -26 64 -26 23 0 36 -4 32 -10 -4 -6 12 -10 40 -10 27 0 44 -4 40 -10 -6 -9
15 -16 65 -22 14 -2 24 -9 23 -16 -2 -8 10 -12 31 -12 19 0 41 -7 50 -15 8 -8
32 -15 54 -15 25 0 42 -5 45 -14 3 -8 22 -16 44 -18 22 -2 37 -8 36 -14 -1 -7
6 -10 17 -7 29 8 70 -5 70 -22 0 -11 11 -15 41 -15 23 0 47 -7 55 -15 9 -8 28
-15 43 -15 15 0 31 -4 36 -9 6 -5 26 -11 45 -13 23 -2 35 -8 35 -18 0 -11 13
-16 48 -18 26 -2 45 -7 42 -13 -4 -5 11 -9 33 -9 22 0 45 -6 52 -14 6 -8 28
-16 48 -18 23 -2 36 -8 35 -15 -2 -8 16 -15 47 -19 27 -4 47 -10 44 -15 -3 -5
15 -9 40 -9 29 0 48 -5 53 -14 4 -8 26 -16 48 -18 25 -2 39 -8 37 -15 -1 -8 9
-13 25 -13 40 0 74 -11 67 -21 -3 -5 18 -9 45 -9 36 0 50 -4 49 -12 -2 -8 12
-14 37 -16 22 -2 44 -8 49 -13 6 -5 25 -9 43 -9 22 0 37 -7 45 -20 10 -15 24
-20 54 -20 28 0 44 -5 48 -15 3 -10 19 -15 45 -15 22 0 43 -4 46 -10 3 -5 22
-10 40 -10 24 0 38 -6 45 -20 8 -15 21 -20 50 -20 22 0 40 -4 40 -10 0 -5 17
-12 38 -15 20 -4 46 -10 57 -15 11 -5 36 -11 55 -12 22 -2 34 -8 32 -15 -1 -9
10 -13 32 -13 42 0 68 -9 60 -21 -3 -5 15 -9 41 -9 31 0 47 -5 51 -15 4 -10
20 -15 51 -15 35 0 44 -3 40 -14 -5 -12 5 -16 41 -18 31 -2 46 -7 44 -15 -1
-9 13 -13 48 -13 38 0 50 -4 50 -15 0 -11 12 -15 45 -15 25 0 45 -4 45 -10 0
-5 13 -10 30 -10 19 0 34 -7 42 -20 10 -15 24 -20 55 -20 29 0 42 -4 41 -12
-2 -9 12 -14 40 -16 23 -2 42 -7 42 -13 0 -5 16 -9 35 -9 32 0 40 -8 36 -33
-1 -4 10 -5 23 -1 31 7 66 -3 63 -19 -1 -7 13 -13 36 -15 20 -2 37 -7 37 -13
0 -5 16 -9 35 -9 24 0 35 -5 35 -15 0 -10 10 -15 29 -15 42 0 66 -10 50 -21
-9 -5 1 -10 29 -15 23 -4 45 -11 48 -15 3 -5 18 -9 35 -9 18 0 29 -5 29 -14 0
-9 12 -16 33 -18 19 -2 31 -8 29 -15 -1 -8 9 -13 28 -13 18 0 33 -6 36 -15 4
-8 16 -15 29 -15 13 0 25 -7 29 -15 3 -8 17 -15 32 -15 19 0 25 -4 20 -15 -4
-11 2 -15 24 -15 20 0 30 -5 30 -15 0 -9 9 -15 25 -15 14 0 25 -4 25 -10 0 -5
9 -10 20 -10 11 0 20 -6 20 -14 0 -8 11 -17 25 -20 14 -4 23 -11 20 -16 -3 -5
3 -13 12 -19 10 -6 12 -11 6 -11 -7 0 -13 -7 -13 -16 0 -18 -23 -44 -40 -44
-6 0 -13 -7 -16 -15 -4 -8 -14 -15 -25 -15 -10 0 -23 -9 -30 -21 -7 -15 -18
-20 -34 -17 -16 3 -22 1 -18 -8 3 -8 -7 -14 -29 -16 -20 -2 -32 -8 -30 -15 1
-8 -9 -13 -29 -13 -17 0 -37 -7 -45 -15 -9 -8 -26 -15 -40 -15 -14 0 -23 -5
-22 -12 2 -8 -10 -14 -30 -16 -18 -2 -36 -10 -39 -18 -3 -9 -20 -14 -45 -14
-23 0 -37 -4 -33 -10 4 -6 -7 -10 -27 -10 -35 0 -60 -11 -59 -26 1 -5 -15 -10
-34 -12 -20 -2 -39 -10 -42 -18 -3 -9 -20 -14 -45 -14 -23 0 -37 -4 -33 -10 4
-6 -12 -10 -40 -10 -37 0 -46 -3 -42 -14 6 -16 -12 -26 -48 -26 -12 0 -28 -7
-35 -15 -7 -8 -28 -15 -46 -15 -19 0 -34 -4 -34 -10 0 -5 -18 -10 -40 -10 -30
0 -42 -5 -51 -21 -8 -17 -18 -20 -45 -17 -23 3 -34 0 -34 -9 0 -7 -12 -13 -27
-13 -40 0 -74 -11 -67 -21 3 -5 -15 -9 -40 -9 -34 0 -46 -4 -46 -15 0 -12 -14
-15 -62 -16 -35 0 -57 -3 -50 -6 26 -10 -1 -23 -49 -23 -37 0 -49 -4 -49 -15
0 -11 -13 -15 -54 -15 -30 0 -57 -4 -60 -9 -3 -4 -32 -11 -65 -15 -38 -4 -61
-12 -65 -21 -4 -11 -22 -15 -66 -15 -45 0 -62 -4 -66 -15 -5 -11 -23 -15 -75
-15 -39 0 -69 -4 -69 -10 0 -6 -31 -10 -72 -10 -40 0 -80 -5 -88 -10 -8 -5
-10 -10 -5 -10 6 0 3 -5 -5 -10 -8 -5 -54 -10 -102 -10 -63 0 -91 -4 -102 -15
-11 -12 -42 -15 -145 -15 -81 0 -131 -4 -131 -10 0 -7 -163 -10 -469 -10 -303
0 -472 4 -476 10 -4 6 -61 10 -140 10 -109 0 -134 3 -139 15 -4 12 -25 15 -98
15 -51 0 -100 5 -108 10 -8 5 -10 10 -5 10 6 0 3 5 -5 10 -8 5 -48 10 -87 10
-42 0 -73 4 -73 10 0 6 -28 10 -65 10 l-65 0 0 -30 c0 -20 5 -30 15 -30 8 0
15 -8 15 -19 0 -10 6 -24 14 -30 7 -6 16 -25 20 -42 3 -17 10 -28 16 -24 6 4
10 -6 10 -25 0 -18 6 -33 15 -36 11 -5 15 -22 15 -63 0 -34 4 -51 9 -43 15 24
21 -14 21 -138 0 -124 -6 -162 -21 -138 -8 11 -14 -71 -6 -88 1 -3 -6 -10 -15
-15 -10 -6 -18 -18 -18 -28 0 -11 -7 -21 -15 -25 -8 -3 -15 -12 -15 -21 0 -8
-7 -15 -15 -15 -8 0 -15 -9 -15 -20 0 -11 -5 -20 -10 -20 -6 0 -21 -11 -34
-25 -13 -14 -28 -25 -35 -25 -6 0 -11 -6 -11 -14 0 -8 -9 -18 -20 -21 -11 -3
-20 -11 -20 -16 0 -5 -9 -9 -20 -9 -11 0 -20 -7 -20 -15 0 -8 -8 -15 -18 -15
-9 0 -23 -9 -30 -20 -7 -11 -19 -20 -27 -20 -8 0 -15 -4 -15 -9 0 -5 -10 -11
-22 -13 -13 -2 -22 -9 -20 -16 1 -7 -9 -12 -23 -12 -14 0 -25 -4 -25 -9 0 -5
-13 -12 -30 -16 -16 -4 -30 -13 -30 -21 0 -8 -10 -14 -25 -14 -16 0 -25 -6
-25 -15 0 -10 -10 -15 -31 -15 -17 0 -28 -4 -24 -10 3 -6 -5 -10 -19 -10 -15
0 -30 -8 -36 -20 -6 -11 -21 -20 -34 -20 -13 0 -26 -7 -30 -15 -3 -9 -18 -15
-36 -15 -18 0 -29 -4 -25 -10 4 -6 -8 -10 -30 -10 -29 0 -35 -4 -33 -17 2 -13
-5 -19 -27 -21 -16 -2 -34 -10 -38 -18 -4 -8 -19 -14 -32 -14 -14 0 -25 -4
-25 -10 0 -5 -16 -10 -35 -10 -25 0 -37 -6 -46 -21 -8 -17 -17 -20 -40 -15
-20 4 -28 2 -26 -7 1 -7 -12 -13 -31 -15 -18 -2 -36 -10 -39 -18 -3 -8 -18
-14 -35 -14 -16 0 -36 -7 -44 -15 -9 -8 -29 -15 -45 -15 -18 0 -28 -5 -27 -12
2 -8 -10 -14 -27 -16 -16 -2 -34 -10 -38 -18 -5 -8 -23 -14 -43 -14 -21 0 -33
-4 -29 -10 4 -6 -6 -10 -22 -10 -32 0 -56 -13 -51 -26 1 -5 -12 -10 -30 -12
-18 -2 -36 -10 -39 -18 -3 -8 -19 -14 -39 -14 -19 0 -34 -4 -34 -9 0 -6 -17
-11 -37 -13 -24 -2 -37 -8 -36 -15 3 -15 -40 -28 -62 -19 -8 3 -14 2 -14 -2 4
-25 -4 -32 -36 -32 -19 0 -35 -4 -35 -10 0 -5 -16 -10 -35 -10 -23 0 -35 -5
-35 -14 0 -19 -26 -27 -57 -20 -19 5 -24 4 -18 -6 9 -15 -11 -30 -42 -30 -13
0 -23 -4 -23 -10 0 -5 -18 -10 -40 -10 -29 0 -40 -4 -40 -15 0 -10 -11 -15
-35 -15 -24 0 -35 -5 -35 -15 0 -10 -10 -15 -30 -15 -18 0 -33 -6 -36 -15 -4
-10 -20 -15 -45 -15 -28 0 -39 -4 -39 -15 0 -11 -11 -15 -40 -15 -26 0 -39 -4
-38 -12 2 -8 -12 -15 -35 -18 -21 -3 -36 -9 -35 -15 2 -5 -14 -11 -34 -13 -21
-2 -38 -7 -38 -13 0 -5 -11 -9 -24 -9 -33 0 -57 -10 -51 -21 7 -11 -39 -23
-64 -16 -12 3 -18 -1 -17 -12 1 -12 -9 -17 -36 -19 -21 -2 -38 -7 -38 -12 0
-5 -17 -10 -37 -12 -24 -2 -37 -8 -35 -15 2 -13 -15 -17 -51 -13 -11 1 -26 -8
-34 -19 -9 -13 -25 -21 -44 -21 -16 0 -29 -4 -29 -10 0 -5 -18 -10 -40 -10
-29 0 -40 -4 -40 -15 0 -11 -12 -15 -46 -15 -25 0 -43 -4 -40 -9 7 -11 -17
-21 -49 -21 -12 0 -25 -6 -28 -14 -3 -8 -22 -16 -44 -18 -24 -2 -37 -8 -35
-15 1 -9 -12 -13 -44 -13 -25 0 -43 -4 -40 -9 8 -12 -18 -21 -60 -21 -26 0
-32 -3 -28 -15 5 -12 -2 -15 -29 -15 -19 0 -40 -7 -47 -15 -7 -9 -29 -15 -52
-15 -21 0 -37 -4 -34 -9 8 -12 -34 -22 -62 -14 -18 4 -24 1 -29 -16 -4 -17
-13 -21 -44 -21 -22 0 -39 -4 -39 -10 0 -5 -18 -10 -40 -10 -27 0 -43 -5 -46
-15 -4 -10 -20 -15 -49 -15 -34 0 -44 -4 -48 -20 -4 -16 -14 -20 -45 -20 -23
0 -44 -4 -47 -10 -3 -5 -29 -10 -56 -10 -35 0 -51 -4 -55 -15 -5 -11 -24 -15
-81 -15 -42 0 -72 -4 -69 -9 10 -16 -73 -25 -214 -24 -79 1 -116 -2 -90 -6
l45 -6 -40 -8 c-51 -9 -212 -9 -256 0 l-34 7 30 7 c17 4 -31 7 -105 7 -135 -1
-195 6 -184 23 3 5 -36 9 -89 9 -75 0 -96 3 -101 15 -4 11 -22 15 -70 15 -36
0 -68 5 -71 10 -3 6 -26 10 -50 10 -53 0 -75 8 -75 26 0 10 -15 14 -61 14 -33
0 -58 4 -55 9 8 12 -18 21 -64 21 -21 0 -42 5 -45 10 -3 6 -26 10 -51 10 -38
0 -44 3 -44 21 0 17 -6 20 -32 18 -54 -3 -80 0 -73 11 4 6 -13 10 -43 10 -35
0 -52 4 -56 15 -4 10 -20 15 -51 15 -33 0 -45 4 -45 15 0 10 -10 15 -29 15
-37 0 -62 10 -55 21 3 5 -18 9 -45 9 -39 0 -51 4 -51 15 0 11 -11 15 -40 15
-29 0 -40 4 -40 15 0 10 -10 15 -29 15 -37 0 -62 10 -55 21 3 5 -15 9 -40 9
-32 0 -45 4 -44 13 2 8 -12 13 -39 15 -24 2 -43 7 -43 13 0 5 -15 9 -34 9 -26
0 -36 5 -41 20 -5 16 -15 20 -46 20 -26 0 -38 4 -37 13 2 8 -12 13 -39 15 -24
2 -43 7 -43 12 0 5 -17 10 -37 12 -28 2 -38 7 -37 19 1 11 -5 15 -17 12 -25
-7 -71 5 -64 16 6 11 -19 21 -56 21 -16 0 -29 4 -29 9 0 6 -17 11 -37 13 -24
2 -37 8 -35 16 1 7 -9 12 -27 12 -37 0 -62 10 -55 21 3 5 -13 9 -35 9 -30 0
-41 4 -41 15 0 11 -12 15 -45 15 -30 0 -44 4 -42 12 1 8 -14 15 -38 18 -24 3
-39 10 -38 18 2 8 -10 12 -36 12 -25 0 -41 5 -45 15 -3 9 -19 15 -41 15 -19 0
-35 5 -35 10 0 6 -12 10 -27 10 -36 0 -58 14 -48 30 5 9 2 10 -13 6 -27 -9
-72 3 -69 18 1 6 -15 12 -40 14 -24 2 -43 7 -43 13 0 5 -16 9 -35 9 -27 0 -35
4 -35 18 0 15 -6 17 -36 14 -29 -4 -36 -1 -41 17 -4 17 -13 21 -44 21 -22 0
-39 5 -39 10 0 6 -16 10 -35 10 -19 0 -38 6 -42 14 -4 8 -24 16 -43 18 -19 2
-33 7 -32 12 6 14 -20 26 -56 26 -20 0 -31 4 -27 10 4 6 -10 10 -33 10 -25 0
-42 5 -45 14 -3 8 -21 16 -39 18 -20 2 -32 8 -30 16 1 8 -10 12 -32 12 -19 0
-41 7 -50 15 -8 8 -28 15 -44 15 -17 0 -32 6 -35 14 -3 8 -22 16 -44 18 -25 2
-37 7 -35 16 2 9 -4 11 -18 7 -27 -8 -60 3 -60 21 0 10 -12 14 -40 14 -22 0
-40 5 -40 10 0 6 -13 10 -29 10 -26 0 -57 21 -46 31 2 3 -11 3 -30 1 -26 -3
-36 1 -44 17 -9 15 -21 21 -46 21 -19 0 -35 5 -35 10 0 6 -15 10 -34 10 -21 0
-36 6 -40 15 -3 9 -18 15 -40 15 -25 0 -35 5 -39 20 -4 15 -14 20 -41 20 -20
0 -36 5 -36 10 0 6 -18 10 -40 10 -26 0 -39 4 -38 12 2 8 -13 15 -37 18 -24 3
-39 10 -37 18 1 7 -9 12 -27 12 -16 0 -36 7 -45 15 -8 8 -31 15 -50 15 -23 0
-35 4 -34 12 2 8 -13 15 -37 18 -23 3 -39 10 -38 17 2 8 -8 10 -31 6 -28 -4
-35 -2 -41 16 -5 17 -14 21 -45 21 -24 0 -40 5 -44 15 -3 9 -19 15 -41 15 -19
0 -35 5 -35 10 0 6 -14 10 -31 10 -22 0 -32 5 -36 20 -4 16 -14 20 -44 20 -22
0 -39 4 -39 10 0 5 -18 13 -40 16 -22 4 -40 10 -40 15 0 4 -17 9 -37 11 -24 2
-37 8 -35 16 1 7 -9 12 -27 12 -16 0 -36 7 -45 15 -8 8 -31 15 -50 15 -25 0
-36 5 -36 14 0 10 -13 16 -37 18 -24 2 -37 8 -35 16 1 7 -9 12 -27 12 -16 0
-36 7 -45 15 -8 8 -31 15 -50 15 -25 0 -36 4 -36 15 0 10 -10 15 -34 15 -19 0
-38 5 -41 10 -3 6 -17 10 -29 10 -25 0 -51 22 -39 33 3 4 -15 7 -40 7 -32 0
-46 4 -45 13 2 7 -11 13 -32 15 -19 2 -39 8 -44 13 -6 5 -23 9 -38 9 -25 0
-33 9 -29 34 1 4 -9 6 -23 2 -28 -7 -65 4 -65 19 0 6 -16 11 -36 13 -19 2 -35
7 -35 12 0 5 -17 10 -37 12 -24 2 -37 8 -35 16 1 7 -9 12 -27 12 -37 0 -62 10
-55 21 3 5 -13 12 -36 15 -22 4 -40 10 -40 15 0 5 -18 9 -40 9 -29 0 -40 4
-40 15 0 10 -10 15 -29 15 -16 0 -36 7 -45 15 -8 8 -28 15 -44 15 -17 0 -32 6
-36 15 -3 9 -18 15 -40 15 -19 0 -36 5 -38 11 -2 6 -19 14 -38 18 -19 4 -34
13 -32 19 1 8 -13 12 -38 12 -29 0 -40 4 -40 15 0 11 -11 15 -40 15 -22 0 -40
4 -40 9 0 6 -15 11 -32 13 -25 2 -33 8 -31 21 1 15 -4 17 -24 12 -32 -8 -63 2
-63 21 0 10 -12 14 -40 14 -22 0 -40 5 -40 10 0 6 -16 10 -35 10 -24 0 -35 5
-35 15 0 10 -11 15 -35 15 -24 0 -37 6 -45 20 -8 14 -21 20 -45 20 -19 0 -35
5 -35 10 0 6 -15 10 -34 10 -20 0 -36 6 -39 14 -3 8 -21 16 -39 18 -18 2 -32
8 -31 15 1 6 -15 14 -37 18 -22 4 -40 11 -40 16 0 5 -18 9 -39 9 -24 0 -41 5
-44 14 -3 8 -21 16 -39 18 -20 2 -32 8 -30 16 1 8 -11 12 -38 12 -29 0 -40 4
-40 15 0 11 -11 15 -39 15 -22 0 -41 5 -43 11 -2 6 -19 14 -38 18 -19 4 -34
12 -33 17 1 6 -14 8 -33 6 -29 -4 -36 -1 -41 17 -4 17 -13 21 -44 21 -22 0
-39 5 -39 10 0 6 -15 10 -34 10 -21 0 -36 6 -40 15 -3 8 -18 15 -33 15 -31 0
-55 12 -54 26 1 5 -14 10 -34 12 -19 2 -35 7 -35 13 0 5 -15 9 -34 9 -21 0
-36 6 -40 15 -3 9 -19 15 -41 15 -23 0 -35 5 -35 14 0 16 -21 26 -56 26 -13 0
-24 5 -24 10 0 6 -15 10 -34 10 -21 0 -36 6 -40 15 -3 9 -19 15 -41 15 -24 0
-35 4 -35 15 0 10 -10 15 -29 15 -16 0 -36 7 -45 15 -8 8 -28 15 -44 15 -18 0
-32 6 -36 15 -5 13 -20 15 -73 13 -48 -2 -67 -7 -65 -15 1 -9 -11 -13 -39 -13
-23 0 -47 -7 -55 -15 -9 -8 -31 -15 -50 -15 -24 0 -34 -5 -34 -15 0 -11 -11
-15 -40 -15 -27 0 -43 -5 -46 -15 -4 -10 -20 -15 -45 -15 -21 0 -39 -4 -39 -9
0 -5 -22 -11 -50 -15 -31 -4 -49 -11 -47 -19 1 -8 -17 -14 -53 -17 -51 -5 -55
-7 -58 -32 -3 -25 0 -28 27 -28 21 0 31 -5 31 -15 0 -11 12 -15 47 -15 25 0
43 -3 40 -7 -14 -14 17 -33 54 -33 22 0 39 -4 39 -10 0 -5 14 -10 30 -10 20 0
30 -5 30 -15 0 -11 12 -15 44 -15 34 0 45 -4 48 -17 2 -11 13 -18 28 -18 14
-1 24 -6 22 -13 -1 -8 13 -12 42 -12 30 0 46 -5 50 -15 3 -8 17 -15 31 -15 14
0 25 -4 25 -10 0 -5 20 -10 45 -10 38 0 45 -3 45 -20 0 -17 7 -20 45 -20 33 0
45 -4 45 -15 0 -10 10 -15 30 -15 17 0 30 -4 30 -10 0 -5 18 -10 40 -10 33 0
40 -3 40 -20 0 -15 7 -20 29 -20 16 0 31 -6 35 -15 3 -10 19 -15 46 -15 22 0
40 -4 40 -10 0 -5 20 -10 44 -10 34 0 45 -4 48 -17 2 -11 13 -18 28 -18 15 0
24 -5 22 -12 -1 -9 12 -13 43 -13 33 0 45 -4 45 -15 0 -10 10 -15 30 -15 20 0
30 -5 30 -15 0 -11 12 -15 45 -15 33 0 45 -4 45 -15 0 -10 10 -15 30 -15 20 0
30 -5 30 -15 0 -11 12 -15 45 -15 35 0 45 -4 45 -16 0 -13 8 -15 39 -12 32 3
41 0 44 -14 4 -12 15 -18 36 -18 19 0 30 -5 29 -12 -2 -9 12 -14 40 -16 23 -2
42 -7 42 -13 0 -5 14 -9 30 -9 23 0 30 -5 30 -19 0 -16 7 -19 43 -18 31 1 42
-2 42 -13 0 -11 14 -16 48 -18 26 -2 45 -7 42 -13 -4 -5 10 -9 29 -9 25 0 36
-4 36 -15 0 -11 11 -15 41 -15 32 0 42 -4 46 -20 3 -13 14 -20 29 -20 13 0 24
-4 24 -10 0 -5 20 -10 45 -10 33 0 45 -4 45 -15 0 -10 10 -15 30 -15 20 0 30
-5 30 -15 0 -11 12 -15 45 -15 33 0 45 -4 45 -15 0 -11 12 -15 45 -15 32 0 45
-4 45 -14 0 -9 12 -16 28 -18 15 -2 26 -8 24 -15 -1 -9 12 -13 43 -13 33 0 45
-4 45 -15 0 -10 10 -15 30 -15 17 0 30 -4 30 -10 0 -5 20 -10 45 -10 36 0 45
-3 45 -18 0 -15 7 -17 41 -14 34 4 41 1 46 -17 4 -15 13 -21 34 -21 16 0 29
-4 29 -10 0 -5 18 -10 40 -10 29 0 40 -4 40 -15 0 -10 10 -15 29 -15 20 0 30
-6 34 -20 4 -16 14 -20 46 -20 23 0 41 -4 41 -10 0 -5 14 -10 30 -10 20 0 30
-5 30 -15 0 -11 11 -15 39 -15 30 0 40 -4 44 -20 4 -16 14 -20 46 -20 23 0 41
-4 41 -10 0 -5 13 -10 29 -10 16 0 31 -6 35 -15 3 -10 19 -15 46 -15 29 0 40
-4 40 -15 0 -9 9 -15 25 -15 14 0 28 -7 31 -15 4 -10 20 -15 50 -15 30 0 43
-4 42 -12 -2 -8 12 -14 37 -16 22 -2 43 -9 47 -16 5 -8 18 -11 33 -8 21 3 27
0 32 -17 4 -17 13 -21 50 -21 27 0 42 -4 38 -10 -4 -6 5 -10 20 -10 14 0 28
-7 31 -15 4 -10 20 -15 50 -15 24 0 43 -3 43 -7 -4 -25 4 -33 31 -33 17 0 30
-4 30 -10 0 -5 20 -10 45 -10 33 0 45 -4 45 -14 0 -10 14 -16 43 -18 26 -2 41
-8 40 -15 -3 -14 32 -27 47 -18 5 3 10 -1 10 -9 0 -12 11 -16 45 -16 33 0 45
-4 45 -15 0 -10 10 -15 30 -15 20 0 30 -5 30 -15 0 -11 11 -15 40 -15 27 0 43
-5 46 -15 4 -10 20 -15 50 -15 32 0 44 -4 44 -15 0 -9 9 -15 25 -15 14 0 25
-6 25 -13 0 -8 14 -11 45 -9 40 4 45 2 45 -17 0 -17 6 -21 30 -21 20 0 30 -5
30 -15 0 -11 12 -15 45 -15 25 0 45 -4 45 -10 0 -5 11 -10 24 -10 16 0 26 -7
29 -21 5 -17 12 -20 46 -18 22 2 40 -1 40 -5 -1 -15 24 -26 59 -26 17 0 32 -4
32 -10 0 -5 14 -10 30 -10 20 0 30 -5 30 -15 0 -11 12 -15 45 -15 33 0 45 -4
45 -15 0 -9 9 -15 24 -15 13 0 26 -7 30 -15 4 -10 20 -15 50 -15 36 0 44 -3
40 -15 -5 -12 3 -15 40 -15 34 0 46 -4 46 -15 0 -10 10 -15 30 -15 20 0 30 -5
30 -15 0 -11 12 -15 45 -15 25 0 45 -4 45 -10 0 -5 12 -10 26 -10 17 0 28 -6
31 -20 4 -16 14 -20 49 -20 30 0 43 -4 42 -12 -2 -8 10 -14 30 -16 17 -2 32
-7 32 -13 0 -5 18 -9 41 -9 32 0 42 -4 46 -19 3 -13 11 -17 24 -14 27 7 69 -5
66 -20 -1 -6 10 -13 26 -15 15 -2 27 -8 27 -13 0 -5 20 -9 45 -9 31 0 44 -4
43 -12 -2 -8 10 -14 28 -16 22 -2 34 -9 37 -23 4 -15 14 -19 46 -19 23 0 41
-4 41 -10 0 -5 20 -10 45 -10 33 0 45 -4 45 -15 0 -9 9 -15 25 -15 16 0 25 -6
25 -15 0 -11 12 -15 45 -15 33 0 45 -4 45 -15 0 -10 10 -15 29 -15 16 0 31 -6
35 -15 3 -10 19 -15 46 -15 30 0 40 -4 40 -16 0 -12 7 -15 24 -12 18 4 26 0
29 -14 4 -14 15 -18 46 -18 23 0 41 -4 41 -10 0 -5 20 -10 45 -10 33 0 45 -4
45 -15 0 -10 10 -15 30 -15 23 0 30 -4 30 -20 0 -17 7 -20 45 -20 25 0 45 -4
45 -10 0 -5 11 -10 24 -10 13 0 26 -7 30 -15 3 -10 19 -15 45 -15 30 0 40 -4
44 -20 4 -16 14 -20 46 -20 23 0 41 -4 41 -10 0 -5 14 -10 30 -10 20 0 30 -5
30 -15 0 -11 12 -15 44 -15 35 0 45 -4 49 -20 3 -14 14 -20 31 -20 14 0 26 -4
26 -10 0 -5 20 -10 45 -10 31 0 44 -4 43 -12 -2 -8 10 -14 30 -16 20 -2 32 -9
32 -18 0 -10 12 -14 40 -14 27 0 43 -5 46 -15 4 -10 20 -15 44 -15 24 0 40 -5
44 -15 3 -8 17 -15 31 -15 14 0 25 -4 25 -10 0 -5 17 -10 39 -10 30 0 40 -4
44 -20 4 -15 14 -20 36 -20 17 0 31 -4 31 -10 0 -5 18 -10 40 -10 23 0 42 -6
47 -14 4 -8 26 -16 48 -18 27 -2 40 -8 40 -18 0 -9 11 -16 28 -18 15 -2 27 -8
27 -13 0 -5 20 -9 45 -9 33 0 45 -4 45 -15 0 -10 10 -15 29 -15 20 0 30 -6 34
-20 4 -16 14 -20 46 -20 23 0 41 -4 41 -10 0 -5 11 -10 24 -10 13 0 26 -7 29
-15 5 -10 27 -15 84 -17 56 -2 77 -7 75 -15 -1 -9 11 -13 35 -13 49 0 84 -10
77 -21 -3 -5 24 -9 59 -9 47 0 66 -4 70 -15 4 -10 25 -15 69 -17 35 -2 62 -7
61 -13 -1 -6 21 -9 53 -7 67 5 104 -4 104 -23 0 -12 18 -15 94 -15 67 0 96 -4
98 -12 4 -12 256 -28 428 -27 46 0 363 15 368 18 2 0 0 5 -3 11 -4 6 17 10 54
10 47 0 61 3 61 15 0 17 40 29 74 23 17 -4 23 -1 19 9 -4 9 6 13 36 13 28 0
44 5 47 15 4 9 19 15 41 15 19 0 41 7 49 15 9 8 31 15 50 15 22 0 33 4 32 13
-2 7 11 13 35 15 22 2 41 10 44 18 3 9 20 14 45 14 23 0 37 4 33 10 -4 6 6 10
22 11 36 1 65 12 61 24 -2 6 12 11 30 13 18 2 36 10 39 18 3 9 20 14 44 14 21
0 39 4 39 9 0 6 17 11 38 13 25 2 37 8 37 18 0 10 12 16 35 18 19 2 39 10 43
18 5 8 23 14 43 14 21 0 33 4 29 10 -4 6 10 10 33 10 32 0 41 4 45 21 5 17 12
21 36 17 19 -3 32 0 35 9 3 7 17 13 31 13 14 0 28 7 31 15 4 10 20 15 45 15
28 0 39 4 39 15 0 11 11 15 40 15 27 0 39 4 38 13 -2 7 10 13 30 15 20 2 32 9
32 18 0 10 12 14 41 14 22 0 38 4 35 9 -3 5 12 11 34 15 24 4 39 11 37 19 -1
7 11 13 31 15 18 2 36 10 39 18 3 8 19 14 39 14 19 0 34 5 34 10 0 6 12 10 28
10 29 0 53 11 55 26 1 5 16 9 33 9 21 0 31 5 30 15 -1 10 10 16 32 18 17 2 32
7 32 13 0 5 16 9 35 9 24 0 35 5 35 14 0 18 33 30 59 21 14 -4 19 -1 17 12 -1
13 7 19 32 21 17 2 32 7 32 13 0 5 16 9 35 9 24 0 35 5 35 15 0 10 10 15 29
15 16 0 31 6 35 15 3 8 16 15 29 15 14 0 30 7 37 15 7 8 26 15 42 15 16 0 31
6 34 15 4 9 19 15 40 15 22 0 33 4 32 13 -2 7 11 13 34 15 27 2 35 7 31 18 -4
10 4 14 31 14 20 0 36 4 36 9 0 5 18 11 40 15 24 4 39 11 37 19 -1 7 10 12 31
12 29 0 37 6 33 28 0 4 15 7 34 7 19 0 35 4 35 9 0 6 15 11 33 13 17 2 31 8
30 13 -2 13 33 26 51 19 9 -3 17 3 21 15 4 15 15 21 36 21 16 0 29 5 29 10 0
6 16 10 35 10 24 0 35 5 35 15 0 10 10 15 33 15 21 0 36 7 45 20 7 11 20 20
30 20 10 0 22 4 28 9 5 5 23 11 39 13 17 2 29 8 27 16 -1 8 11 12 39 12 22 0
38 4 35 9 -7 10 17 21 45 21 10 0 19 7 19 15 0 10 10 15 30 15 18 0 33 6 36
15 4 9 19 15 39 15 19 0 35 6 38 14 4 9 18 13 36 12 23 -2 30 2 28 13 -1 11 8
17 31 19 17 2 32 7 32 12 0 4 16 11 35 14 19 4 35 11 35 16 0 6 15 10 34 10
25 0 35 5 39 20 4 15 14 20 36 20 17 0 31 4 31 9 0 6 15 11 33 13 19 2 31 8
29 16 -1 7 9 12 28 12 17 0 40 9 52 20 12 11 30 20 40 20 10 0 18 4 18 9 0 6
15 11 33 13 19 2 31 8 29 16 -1 8 10 12 32 12 21 0 36 6 40 15 3 8 17 15 31
15 15 0 24 5 23 13 -2 7 9 13 25 15 15 2 27 9 27 18 0 8 10 14 25 14 14 0 25
4 25 9 0 5 13 12 29 16 20 4 28 11 24 21 -3 9 2 14 16 14 12 0 24 7 27 15 4 8
15 15 25 15 10 0 19 4 19 9 0 5 10 11 23 13 12 2 21 9 19 17 -1 7 6 15 17 18
11 3 22 11 25 19 3 8 12 14 21 14 8 0 15 5 15 10 0 6 7 10 15 10 8 0 15 7 15
15 0 8 9 15 20 15 11 0 19 3 18 8 -4 11 68 82 82 82 7 0 11 3 7 6 -6 7 2 17
46 64 15 15 27 33 27 38 0 5 7 12 15 16 8 3 15 14 15 23 0 10 9 26 20 36 11 9
20 26 20 37 0 11 5 20 10 20 6 0 10 12 10 26 0 15 7 32 15 38 10 8 15 36 16
105 2 74 5 90 14 77 10 -13 32 -16 114 -16 82 0 101 -3 101 -15 0 -12 31 -15
183 -18 100 -2 200 -8 222 -15 53 -15 416 -15 470 0 22 6 106 13 187 15 112 3
149 7 158 18 9 11 35 15 97 15 47 0 82 4 79 9 -9 14 20 21 85 21 42 0 58 4 57
13 -2 8 14 13 50 15 28 2 52 7 52 13 0 5 15 9 34 9 42 0 68 9 61 21 -8 12 39
22 64 14 17 -5 21 -2 21 14 0 17 6 21 34 21 19 0 38 5 41 10 3 6 24 10 46 10
28 0 39 4 39 15 0 15 13 19 65 15 17 -1 27 1 23 6 -13 13 13 34 43 34 16 0 29
5 29 10 0 6 18 10 40 10 27 0 43 5 46 15 4 10 20 15 46 15 21 0 37 4 34 9 -7
11 18 21 55 21 19 0 29 5 29 14 0 10 14 16 43 18 27 2 41 7 39 16 -1 8 10 12
34 12 19 0 42 7 50 15 9 8 29 15 45 15 19 0 29 5 29 15 0 10 10 15 34 15 18 0
39 7 46 15 7 8 28 15 47 15 20 0 32 4 28 10 -6 9 2 11 60 14 11 1 20 8 20 16
0 10 12 16 38 18 20 2 37 7 37 13 0 5 16 9 35 9 22 0 38 6 41 15 4 10 20 15
44 15 29 0 39 4 43 20 4 15 14 20 36 20 17 0 31 5 31 10 0 6 16 10 35 10 24 0
35 5 35 15 0 11 11 15 36 15 19 0 42 7 50 15 9 8 28 15 44 15 22 0 28 4 24 15
-5 12 2 15 30 15 25 0 36 4 36 15 0 10 11 15 35 15 19 0 35 4 35 10 0 5 19 13
42 17 24 3 37 8 30 11 -21 7 -2 22 29 22 17 0 32 6 35 15 4 9 19 15 35 15 16
0 29 5 29 10 0 6 11 10 25 10 14 0 29 8 35 20 6 12 21 20 35 20 16 0 25 6 25
15 0 10 10 15 31 15 17 0 28 4 24 10 -4 6 6 10 23 10 21 0 31 6 35 20 3 12 14
20 26 20 12 0 21 5 21 10 0 6 9 10 20 10 11 0 23 7 26 15 4 8 14 15 24 15 10
0 20 7 24 15 3 8 13 15 21 15 9 0 14 4 11 8 -3 4 11 21 30 37 19 16 34 36 34
46 0 27 11 50 21 43 5 -3 9 12 8 33 0 28 -2 33 -8 18 -6 -15 -9 -11 -14 20 -4
22 -7 52 -7 68 0 17 -5 27 -15 27 -8 0 -15 8 -15 18 0 10 -16 32 -35 49 -19
17 -35 36 -35 43 0 6 -4 9 -9 6 -11 -7 -33 18 -24 27 3 4 -6 7 -20 7 -16 0
-26 5 -25 12 2 7 -7 14 -19 16 -13 2 -23 8 -23 13 0 5 -7 9 -16 9 -9 0 -18 9
-21 20 -3 13 -14 20 -28 20 -13 0 -25 7 -29 15 -3 8 -17 15 -31 15 -14 0 -25
5 -25 10 0 6 -11 10 -25 10 -19 0 -25 5 -25 21 0 16 -4 19 -20 14 -11 -3 -28
-2 -37 4 -10 6 -13 11 -8 11 20 1 -21 20 -42 20 -13 0 -23 5 -23 10 0 6 -16
10 -36 10 -28 0 -35 3 -30 15 4 12 -3 15 -30 15 -22 0 -37 6 -40 15 -4 10 -20
15 -45 15 -28 0 -39 4 -39 15 0 10 -10 15 -30 15 -19 0 -30 5 -30 14 0 10 -14
16 -42 18 -28 2 -42 7 -40 16 1 7 -9 12 -28 12 -20 0 -30 5 -30 15 0 11 -12
15 -45 15 -25 0 -45 5 -45 10 0 6 -20 10 -44 10 -36 0 -45 4 -49 21 -5 18 -12
21 -43 17 -29 -3 -38 -1 -42 14 -3 14 -14 18 -48 18 -24 0 -44 5 -44 10 0 6
-18 10 -40 10 -36 0 -44 6 -42 31 1 3 -12 4 -27 1 -22 -3 -29 1 -34 17 -4 17
-13 21 -46 21 -23 0 -41 5 -41 10 0 6 -20 10 -45 10 -33 0 -45 4 -45 15 0 11
-12 15 -45 15 -38 0 -45 3 -45 20 0 17 -7 20 -45 20 -25 0 -45 5 -45 10 0 6
-18 10 -40 10 -29 0 -40 4 -40 15 0 11 -12 15 -45 15 -33 0 -45 4 -45 15 0 9
-9 15 -24 15 -13 0 -26 7 -30 15 -4 10 -20 15 -51 15 -31 0 -44 4 -43 13 2 7
-12 13 -37 15 -22 2 -43 9 -47 15 -4 6 -25 10 -47 8 -36 -2 -41 0 -41 18 0 18
-6 21 -45 21 -25 0 -45 5 -45 10 0 6 -20 10 -45 10 -33 0 -45 4 -45 15 0 9
-10 15 -26 15 -17 0 -28 6 -31 20 -4 16 -14 20 -49 20 -24 0 -44 5 -44 10 0 6
-18 10 -39 10 -25 0 -41 5 -45 15 -3 10 -19 15 -45 15 -30 0 -40 4 -44 20 -4
16 -14 20 -46 20 -23 0 -41 5 -41 10 0 6 -20 10 -45 10 -31 0 -44 4 -43 13 2
8 -13 13 -45 15 -30 2 -45 7 -41 14 8 13 -14 28 -43 28 -13 0 -23 5 -23 10 0
6 -18 10 -39 10 -25 0 -41 5 -45 15 -3 10 -19 15 -46 15 -26 0 -40 5 -40 13 0
9 -12 11 -39 9 -32 -3 -39 0 -44 17 -4 17 -13 21 -51 21 -31 0 -45 4 -44 13 2
8 -12 13 -39 15 -24 2 -43 7 -43 13 0 5 -13 9 -29 9 -20 0 -30 6 -34 20 -4 16
-14 20 -46 20 -23 0 -41 5 -41 10 0 6 -20 10 -45 10 -33 0 -45 4 -45 15 0 11
-12 15 -45 15 -38 0 -45 3 -45 20 0 18 -4 20 -40 14 -31 -5 -41 -3 -46 10 -4
11 -18 16 -44 16 -24 0 -40 5 -44 15 -3 10 -19 15 -46 15 -29 0 -40 4 -40 15
0 10 -10 15 -30 15 -20 0 -30 5 -30 15 0 11 -12 15 -45 15 -33 0 -45 4 -45 15
0 11 -12 15 -45 15 -25 0 -45 5 -45 10 0 6 -15 10 -34 10 -33 0 -62 20 -49 33
3 4 -14 7 -39 7 -32 0 -48 5 -52 15 -3 10 -19 15 -46 15 -22 0 -40 5 -40 10 0
6 -13 10 -30 10 -16 0 -29 3 -29 8 4 25 -3 30 -40 25 -33 -5 -39 -2 -44 16 -4
17 -13 21 -46 21 -23 0 -41 5 -41 10 0 6 -20 10 -45 10 -33 0 -45 4 -45 15 0
11 -12 15 -45 15 -32 0 -45 4 -45 14 0 17 -22 26 -61 26 -16 0 -29 5 -29 10 0
6 -20 10 -45 10 -33 0 -45 4 -45 15 0 9 -9 15 -25 15 -16 0 -25 6 -25 15 0 11
-12 15 -45 15 -33 0 -45 4 -45 15 0 11 -11 15 -41 15 -23 0 -47 7 -55 15 -9 8
-31 15 -50 15 -24 0 -34 5 -34 15 0 11 -12 15 -45 15 -33 0 -45 4 -45 15 0 11
-12 15 -46 15 -27 0 -43 4 -39 10 4 6 -7 10 -24 10 -27 0 -35 7 -33 30 0 3
-19 3 -42 2 -37 -3 -44 -1 -49 17 -4 17 -13 21 -46 21 -23 0 -41 5 -41 10 0 6
-18 10 -40 10 -29 0 -40 4 -40 15 0 11 -12 15 -44 15 -35 0 -45 4 -49 20 -4
16 -14 20 -46 20 -23 0 -41 5 -41 10 0 6 -20 10 -45 10 -33 0 -45 4 -45 15 0
10 -10 15 -30 15 -19 0 -30 5 -30 14 0 17 -22 26 -61 26 -16 0 -29 5 -29 10 0
6 -20 10 -45 10 -33 0 -45 4 -45 15 0 11 -11 15 -40 15 -30 0 -40 4 -40 16 0
13 -9 15 -45 12 -38 -3 -45 0 -45 14 0 15 -9 18 -44 18 -30 0 -46 5 -50 15 -3
10 -19 15 -46 15 -22 0 -40 5 -40 10 0 6 -12 10 -26 10 -17 0 -28 6 -31 20 -4
16 -14 20 -49 20 -24 0 -44 5 -44 10 0 6 -18 10 -40 10 -36 0 -44 6 -42 30 0
3 -20 3 -44 1 -39 -3 -44 -1 -44 18 0 18 -6 21 -45 21 -25 0 -45 5 -45 10 0 6
-18 10 -39 10 -25 0 -41 5 -45 15 -3 9 -18 15 -35 15 -20 0 -30 6 -34 20 -4
15 -14 20 -41 20 -20 0 -36 5 -36 10 0 6 -20 10 -45 10 -33 0 -45 4 -45 15 0
11 -12 15 -45 15 -35 0 -45 4 -45 16 0 13 -8 15 -40 12 -32 -3 -41 0 -46 14
-4 14 -16 18 -50 18 -32 0 -44 4 -44 15 0 11 -11 15 -39 15 -22 0 -43 5 -46
10 -3 6 -17 10 -31 10 -17 0 -24 5 -24 20 0 17 -7 20 -44 20 -30 0 -46 5 -50
15 -3 10 -19 15 -46 15 -22 0 -40 5 -40 10 0 6 -20 10 -45 10 -38 0 -45 3 -45
20 0 17 -7 20 -45 20 -25 0 -45 5 -45 10 0 6 -18 10 -39 10 -25 0 -41 5 -45
15 -3 8 -17 15 -31 15 -16 0 -25 6 -25 15 0 11 -12 15 -45 15 -33 0 -45 4 -45
15 0 11 -12 15 -45 15 -31 0 -44 4 -42 13 1 8 -15 14 -46 17 -26 3 -47 10 -47
15 0 6 -18 11 -40 13 -27 2 -40 8 -40 18 0 10 -12 14 -45 14 -33 0 -45 4 -45
15 0 11 -12 15 -45 15 -25 0 -45 5 -45 10 0 6 -11 10 -24 10 -16 0 -26 7 -29
21 -5 18 -12 21 -46 17 -32 -3 -41 0 -44 14 -4 14 -15 18 -46 18 -23 0 -41 5
-41 10 0 6 -20 10 -44 10 -34 0 -45 4 -48 17 -2 14 -12 17 -44 15 -35 -3 -42
0 -47 17 -4 17 -13 21 -46 21 -23 0 -41 5 -41 10 0 6 -14 10 -31 10 -23 0 -30
4 -26 14 5 12 -5 16 -41 18 -31 2 -46 7 -44 16 1 8 -12 12 -43 12 -33 0 -45 4
-45 15 0 11 -12 15 -45 15 -31 0 -44 4 -42 13 1 7 -12 13 -37 15 -22 2 -45 10
-50 17 -12 16 -176 33 -176 19z"/>
<path d="M4480 7203 c0 -17 -12 -18 -145 -15 -126 3 -145 1 -145 -12 0 -12
-11 -16 -45 -16 -33 0 -45 -4 -45 -15 0 -12 -13 -15 -60 -15 -47 0 -60 -3 -60
-15 0 -10 -10 -15 -30 -15 -19 0 -29 -5 -28 -12 2 -9 -12 -14 -39 -16 -29 -2
-43 -8 -43 -18 0 -9 -11 -14 -30 -14 -16 0 -30 -4 -30 -10 0 -5 -14 -10 -31
-10 -23 0 -32 -5 -36 -21 -4 -16 -12 -20 -29 -16 -18 3 -24 0 -24 -14 0 -14
-7 -19 -30 -19 -16 0 -30 -4 -30 -10 0 -5 -12 -10 -26 -10 -17 0 -28 -6 -31
-20 -3 -11 -12 -20 -19 -20 -8 0 -14 -7 -14 -15 0 -9 -9 -15 -25 -15 -14 0
-25 -4 -25 -10 0 -5 -7 -10 -16 -10 -9 0 -18 -9 -21 -20 -3 -11 -9 -18 -13
-15 -4 3 -10 -2 -13 -9 -3 -8 -18 -16 -34 -18 -16 -2 -27 -8 -26 -15 2 -7 -4
-13 -12 -13 -8 0 -15 -7 -15 -15 0 -8 -6 -15 -14 -15 -8 0 -16 -7 -20 -15 -3
-8 -17 -15 -31 -15 -16 0 -25 -6 -25 -15 0 -8 -7 -15 -15 -15 -8 0 -15 -7 -15
-15 0 -8 -4 -15 -10 -15 -13 0 -50 -37 -50 -50 0 -5 -5 -10 -10 -10 -14 0 -57
-40 -44 -41 5 0 -1 -4 -13 -9 -13 -5 -23 -16 -23 -25 0 -8 -7 -15 -16 -15 -8
0 -12 -4 -9 -10 3 -5 -1 -10 -9 -10 -9 0 -16 -7 -16 -15 0 -8 -9 -15 -20 -15
-14 0 -20 -7 -20 -21 0 -11 -4 -17 -10 -14 -5 3 -10 -1 -10 -9 0 -9 -7 -16
-15 -16 -8 0 -15 -7 -15 -15 0 -8 -4 -15 -10 -15 -13 0 -50 -37 -50 -50 0 -5
-7 -10 -15 -10 -8 0 -15 -7 -15 -15 0 -8 -9 -15 -20 -15 -11 0 -19 -6 -18 -12
2 -7 -3 -12 -9 -10 -9 1 -13 -10 -13 -33 0 -24 -5 -35 -15 -35 -8 0 -15 -4
-15 -10 0 -5 -7 -10 -15 -10 -8 0 -15 -9 -15 -20 0 -11 -5 -20 -11 -20 -14 0
-69 -55 -69 -69 0 -6 -4 -11 -8 -11 -14 0 -57 -41 -54 -51 1 -5 -5 -9 -13 -9
-8 0 -15 -4 -15 -9 0 -5 -9 -13 -20 -16 -11 -4 -18 -10 -15 -15 3 -5 -4 -14
-15 -20 -11 -6 -18 -15 -15 -21 4 -5 -4 -9 -16 -9 -19 0 -21 -4 -15 -30 5 -28
3 -30 -24 -30 -20 0 -30 -5 -30 -15 0 -8 -7 -15 -15 -15 -8 0 -15 -4 -15 -10
0 -5 -7 -10 -15 -10 -8 0 -15 -7 -15 -15 0 -9 -7 -18 -15 -21 -8 -4 -15 -12
-15 -20 0 -8 -4 -14 -10 -14 -15 0 -50 -33 -44 -42 6 -9 -8 -11 -43 -8 -15 1
-23 -4 -23 -14 0 -9 -4 -16 -10 -16 -5 0 -10 -7 -10 -15 0 -8 -6 -15 -13 -15
-7 0 -24 -13 -37 -30 -14 -16 -35 -29 -47 -30 -14 0 -23 -6 -23 -15 0 -8 -7
-15 -15 -15 -8 0 -15 -4 -15 -10 0 -5 -12 -10 -26 -10 -17 0 -28 -6 -31 -20
-3 -11 -12 -20 -19 -20 -8 0 -14 -7 -14 -15 0 -8 -8 -15 -18 -15 -32 0 -72
-24 -72 -44 0 -15 -6 -17 -29 -14 -17 2 -30 2 -29 -1 2 -23 -6 -31 -32 -31
-16 0 -30 -4 -30 -10 0 -5 -11 -10 -24 -10 -15 0 -26 -7 -29 -19 -3 -14 -11
-17 -31 -14 -21 4 -26 2 -26 -16 0 -17 -6 -21 -36 -21 -21 0 -33 -4 -29 -10 4
-6 -12 -10 -39 -10 -34 0 -46 -4 -46 -15 0 -11 -12 -15 -45 -15 -31 0 -44 -4
-42 -12 1 -9 -17 -15 -58 -18 -59 -5 -60 -5 -63 -38 l-3 -33 118 3 c92 2 118
6 118 17 0 11 23 13 113 12 107 -2 114 -1 119 18 5 19 13 21 94 21 53 0 89 4
89 10 0 6 11 10 25 10 16 0 25 6 25 15 0 11 12 15 45 15 33 0 45 4 45 15 0 11
11 15 40 15 27 0 43 5 46 15 4 10 20 15 50 15 32 0 44 -4 44 -15 0 -8 -7 -15
-15 -15 -8 0 -15 -9 -15 -20 0 -24 -29 -60 -48 -60 -7 0 -10 -5 -7 -11 4 -6
-2 -13 -14 -16 -12 -3 -21 -9 -21 -14 0 -14 -33 -49 -47 -49 -7 0 -10 -7 -7
-15 4 -8 1 -15 -5 -15 -6 0 -22 -10 -36 -22 -18 -15 -23 -28 -19 -45 5 -17 2
-23 -10 -23 -9 0 -16 -4 -16 -10 0 -5 -7 -10 -15 -10 -8 0 -15 -7 -15 -15 0
-8 -7 -15 -15 -15 -9 0 -15 -9 -15 -21 0 -15 -5 -19 -16 -15 -9 3 -12 2 -9 -5
4 -6 -2 -13 -14 -16 -12 -3 -21 -12 -21 -19 0 -8 -7 -14 -15 -14 -8 0 -15 -9
-15 -19 0 -12 -7 -18 -17 -17 -14 1 -18 -7 -18 -29 0 -25 4 -30 28 -33 22 -3
30 1 34 17 4 14 13 21 30 21 25 0 53 21 53 39 0 6 16 11 35 11 29 0 35 4 35
21 0 11 5 17 10 14 6 -3 10 1 10 9 0 9 12 16 33 18 19 2 31 8 30 16 -2 7 7 12
22 12 27 0 65 27 65 47 0 8 12 13 30 13 17 0 30 5 30 11 0 19 28 39 55 39 19
0 29 6 32 21 3 12 11 18 19 15 8 -3 13 -2 13 2 -4 24 4 32 32 32 17 0 28 4 24
10 -3 6 0 10 8 10 8 0 17 8 20 19 3 14 11 17 31 14 21 -4 26 -2 26 16 0 12 6
21 15 21 8 0 15 4 15 9 0 5 9 11 21 14 12 3 18 10 14 16 -4 7 5 11 24 11 17 0
31 5 31 10 0 13 37 50 50 50 5 0 10 7 10 15 0 10 10 15 31 15 19 0 28 4 24 11
-4 6 2 13 14 16 12 3 21 12 21 19 0 8 7 14 15 14 8 0 15 4 15 9 0 5 12 11 28
13 16 2 26 8 24 16 -1 8 7 16 18 19 13 3 19 11 16 19 -3 8 1 14 9 14 8 0 15 5
15 10 0 6 6 10 14 10 7 0 16 8 19 19 3 14 11 17 31 14 21 -4 26 -2 26 16 0 12
6 21 15 21 8 0 15 5 15 10 0 6 7 10 15 10 8 0 15 7 15 15 0 8 7 15 15 15 8 0
15 9 15 20 0 14 5 18 17 13 11 -4 14 -3 9 6 -5 8 -1 14 13 18 12 3 21 12 21
19 0 8 7 14 15 14 8 0 15 7 15 15 0 8 7 15 15 15 9 0 12 6 9 15 -4 10 0 15 10
15 9 0 19 7 22 15 4 8 12 15 20 15 8 0 14 7 14 16 0 8 5 12 10 9 6 -3 10 3 10
14 0 12 7 21 15 21 8 0 15 4 15 9 0 5 9 11 21 14 12 3 18 10 14 16 -3 6 1 11
9 11 9 0 16 9 16 20 0 14 7 20 21 20 17 0 20 5 17 25 -4 16 -1 25 8 25 7 0 16
9 19 20 4 11 11 18 16 15 5 -4 9 -1 9 4 0 14 37 51 50 51 6 0 10 4 10 9 0 5
12 11 28 13 15 2 27 8 27 13 0 13 42 55 55 55 6 0 10 7 10 16 0 8 4 13 9 10 5
-3 11 3 14 14 4 15 14 20 36 20 17 0 31 5 31 11 0 14 25 39 39 39 6 0 11 5 11
11 0 20 72 79 97 79 16 0 27 7 30 20 3 11 9 17 14 14 5 -3 9 2 9 10 0 10 9 16
25 16 14 0 28 7 31 15 4 9 19 15 35 15 16 0 29 4 29 9 0 5 14 11 30 15 17 3
30 12 30 20 0 7 7 17 16 20 8 3 12 10 9 16 -4 6 8 10 29 10 20 0 36 5 36 10 0
6 13 10 29 10 41 0 61 9 54 26 -4 11 5 14 41 14 34 0 46 4 46 15 0 11 11 15
40 15 22 0 40 5 40 10 0 6 20 10 44 10 35 0 45 4 49 20 4 16 14 20 46 20 30 0
41 4 41 15 0 12 13 15 60 15 33 0 60 4 60 10 0 6 20 10 44 10 34 0 45 4 48 17
2 14 14 16 71 14 53 -2 68 1 73 13 5 13 24 16 100 16 75 0 96 3 100 15 5 12
26 15 105 15 80 0 99 3 99 15 0 11 21 15 108 17 l107 3 3 28 c3 26 2 27 -43
27 -38 0 -48 4 -52 20 -4 16 -14 20 -49 20 -24 0 -44 5 -44 10 0 6 -18 10 -40
10 -29 0 -40 4 -40 15 0 10 -10 15 -29 15 -20 0 -30 6 -34 20 -4 16 -14 20
-46 20 -23 0 -41 5 -41 10 0 6 -20 10 -45 10 -33 0 -45 4 -45 15 0 11 -11 15
-40 15 -27 0 -43 5 -46 15 -4 8 -16 15 -29 15 -13 0 -25 7 -29 15 -3 10 -19
15 -45 15 -25 0 -41 5 -45 15 -3 10 -19 15 -46 15 -30 0 -40 4 -40 16 0 13
-15 15 -100 12 -90 -3 -100 -1 -100 15 0 12 -8 17 -30 17 -22 0 -30 -5 -30
-17z"/>
<path d="M23039 6603 c-1 -2 -2 -9 -3 -15 0 -7 -12 -14 -26 -16 -14 -2 -34 -7
-45 -12 -11 -5 -33 -11 -50 -12 -18 -2 -29 -8 -27 -15 1 -9 -12 -13 -42 -13
-35 0 -45 -4 -49 -20 -4 -14 -14 -20 -34 -20 -16 0 -33 -4 -38 -9 -6 -5 -26
-11 -45 -13 -21 -2 -34 -8 -32 -15 1 -9 -12 -13 -44 -13 -25 0 -43 -4 -40 -9
4 -5 -7 -15 -23 -22 -16 -7 -27 -17 -25 -21 3 -4 -15 -8 -40 -8 -34 0 -46 -4
-46 -15 0 -9 -9 -15 -24 -15 -13 0 -26 -5 -28 -11 -2 -7 -17 -13 -33 -14 -51
-3 -55 -5 -55 -20 0 -10 -11 -15 -35 -15 -24 0 -35 -5 -35 -15 0 -11 -11 -15
-40 -15 -22 0 -40 -4 -40 -10 0 -5 -13 -10 -30 -10 -23 0 -30 -4 -30 -20 0
-17 -7 -20 -45 -20 -33 0 -45 -4 -45 -15 0 -10 -10 -15 -30 -15 -16 0 -30 -4
-30 -10 0 -5 -18 -10 -41 -10 -32 0 -42 -4 -46 -20 -3 -13 -14 -20 -29 -20
-13 0 -24 -4 -24 -10 0 -5 -18 -10 -40 -10 -27 0 -43 -5 -46 -15 -4 -9 -19
-15 -35 -15 -23 0 -29 -4 -29 -21 0 -20 -4 -21 -45 -16 -36 5 -45 4 -45 -8 0
-9 -10 -15 -25 -15 -16 0 -25 -6 -25 -15 0 -11 -12 -15 -45 -15 -25 0 -45 -4
-45 -10 0 -5 -11 -10 -24 -10 -25 0 -51 -22 -39 -33 3 -4 -15 -7 -40 -7 -35 0
-47 -4 -47 -15 0 -10 -10 -15 -30 -15 -16 0 -30 -4 -30 -9 0 -6 -19 -11 -42
-13 -30 -2 -43 -8 -43 -18 0 -10 -12 -16 -32 -18 -21 -2 -33 -9 -33 -18 0 -10
-13 -14 -45 -14 -25 0 -45 -4 -45 -10 0 -5 -11 -10 -24 -10 -15 0 -26 -7 -29
-20 -4 -16 -14 -20 -45 -20 -26 0 -42 -5 -46 -15 -3 -8 -17 -15 -31 -15 -14 0
-25 -4 -25 -10 0 -5 -20 -10 -45 -10 -36 0 -45 -3 -45 -18 0 -14 -7 -17 -45
-14 -36 3 -45 1 -45 -12 0 -10 -9 -16 -25 -16 -16 0 -25 -6 -25 -15 0 -11 -12
-15 -45 -15 -33 0 -45 -4 -45 -15 0 -10 -10 -15 -30 -15 -20 0 -30 -5 -30 -15
0 -11 -12 -15 -45 -15 -33 0 -45 -4 -45 -15 0 -10 -10 -15 -30 -15 -16 0 -30
-4 -30 -9 0 -6 -19 -11 -42 -13 -30 -2 -43 -8 -43 -18 0 -9 -13 -17 -30 -20
-16 -4 -29 -11 -27 -18 1 -8 -13 -12 -43 -12 -25 0 -45 -4 -45 -9 0 -6 -15
-11 -32 -13 -21 -2 -33 -8 -33 -18 0 -11 -12 -15 -43 -15 -33 0 -42 -4 -42
-17 0 -13 -8 -18 -30 -18 -16 0 -30 -4 -30 -10 0 -5 -18 -10 -40 -10 -27 0
-43 -5 -46 -15 -4 -8 -17 -15 -31 -15 -16 0 -27 -7 -30 -20 -4 -16 -14 -20
-44 -20 -22 0 -39 -4 -39 -10 0 -5 -13 -10 -30 -10 -20 0 -30 -5 -30 -15 0
-11 -12 -15 -45 -15 -33 0 -45 -4 -45 -15 0 -10 -10 -15 -30 -15 -20 0 -30 -5
-30 -15 0 -11 -12 -15 -45 -15 -33 0 -45 -4 -45 -15 0 -11 -12 -15 -45 -15
-31 0 -44 -4 -42 -12 1 -8 -10 -14 -25 -16 -16 -2 -28 -9 -28 -18 0 -10 -13
-14 -45 -14 -25 0 -45 -4 -45 -10 0 -5 -12 -10 -26 -10 -18 0 -28 -6 -31 -21
-5 -19 -11 -21 -49 -15 -39 5 -44 3 -44 -14 0 -15 -7 -20 -25 -20 -14 0 -25
-4 -25 -10 0 -5 -20 -10 -45 -10 -33 0 -45 -4 -45 -15 0 -10 -10 -15 -31 -15
-22 0 -32 -5 -36 -20 -4 -16 -14 -20 -44 -20 -22 0 -39 -4 -39 -10 0 -5 -13
-10 -30 -10 -20 0 -30 -5 -30 -15 0 -11 -12 -15 -45 -15 -33 0 -45 -4 -45 -15
0 -10 -10 -15 -30 -15 -20 0 -30 -5 -30 -15 0 -11 -12 -15 -45 -15 -33 0 -45
-4 -45 -15 0 -9 -9 -15 -24 -15 -13 0 -26 -6 -28 -12 -3 -8 -19 -12 -42 -10
-31 3 -38 0 -43 -17 -4 -15 -13 -21 -34 -21 -19 0 -29 -5 -29 -15 0 -11 -12
-15 -45 -15 -30 0 -45 -4 -45 -13 0 -7 -11 -13 -27 -12 -18 0 -28 -5 -28 -15
0 -10 -13 -16 -42 -18 -24 -2 -43 -7 -43 -13 0 -5 -18 -9 -40 -9 -27 0 -43 -5
-46 -15 -4 -9 -19 -15 -35 -15 -22 0 -29 -5 -29 -20 0 -17 -7 -20 -45 -20 -25
0 -45 -4 -45 -10 0 -5 -11 -10 -25 -10 -16 0 -25 -6 -25 -15 0 -11 -12 -15
-44 -15 -30 0 -46 -5 -50 -15 -3 -9 -18 -15 -37 -15 -23 0 -30 -4 -26 -14 5
-12 -5 -16 -41 -18 -31 -2 -46 -7 -45 -15 2 -8 -8 -13 -27 -13 -17 0 -30 -4
-30 -9 0 -6 -19 -11 -42 -13 -30 -2 -43 -8 -43 -18 0 -10 -12 -16 -32 -18 -21
-2 -33 -9 -33 -18 0 -10 -13 -14 -45 -14 -25 0 -45 -4 -45 -9 0 -5 -12 -11
-27 -13 -17 -2 -28 -9 -28 -18 0 -10 -13 -16 -42 -18 -29 -2 -43 -8 -43 -18 0
-9 -11 -14 -30 -14 -16 0 -30 -4 -30 -10 0 -5 -20 -10 -45 -10 -39 0 -45 -3
-45 -21 0 -18 -5 -21 -30 -17 -20 3 -30 0 -30 -9 0 -8 -12 -13 -29 -13 -16 0
-36 -7 -45 -15 -8 -8 -26 -15 -40 -15 -16 0 -26 -6 -26 -15 0 -11 -12 -15 -45
-15 -32 0 -45 -4 -45 -14 0 -9 -12 -16 -32 -18 -20 -2 -32 -8 -30 -15 1 -9
-12 -13 -42 -13 -31 0 -46 -5 -50 -16 -3 -8 -11 -12 -16 -9 -16 10 -70 -5 -67
-18 1 -6 -11 -14 -28 -17 -16 -3 -29 -11 -27 -18 1 -8 -13 -12 -43 -12 -25 0
-45 -4 -45 -9 0 -6 -15 -11 -32 -13 -21 -2 -33 -8 -33 -18 0 -10 -13 -16 -42
-18 -29 -2 -43 -8 -43 -18 0 -9 -11 -14 -30 -14 -16 0 -30 -4 -30 -10 0 -5
-18 -10 -41 -10 -33 0 -42 -4 -46 -21 -5 -16 -11 -19 -30 -14 -19 4 -26 1 -30
-15 -4 -16 -13 -20 -44 -20 -22 0 -39 -4 -39 -10 0 -5 -13 -10 -30 -10 -20 0
-30 -5 -30 -15 0 -11 -12 -15 -45 -15 -37 0 -45 -3 -45 -19 0 -13 -7 -18 -27
-18 -15 0 -29 -6 -31 -12 -2 -6 -24 -11 -48 -11 -32 0 -44 -4 -44 -15 0 -9 -9
-15 -24 -15 -13 0 -26 -7 -30 -15 -3 -10 -19 -15 -46 -15 -29 0 -40 -4 -40
-15 0 -10 -10 -15 -29 -15 -16 0 -31 -6 -35 -15 -3 -10 -19 -15 -46 -15 -30 0
-40 -4 -40 -16 0 -12 -7 -15 -30 -12 -24 4 -30 1 -30 -14 0 -14 -8 -18 -40
-18 -22 0 -40 -4 -40 -10 0 -5 -20 -10 -45 -10 -33 0 -45 -4 -45 -15 0 -10
-10 -15 -31 -15 -22 0 -32 -5 -36 -20 -4 -16 -14 -20 -44 -20 -22 0 -39 -4
-39 -10 0 -5 -13 -10 -30 -10 -20 0 -30 -5 -30 -15 0 -11 -11 -15 -41 -15 -33
0 -42 -4 -46 -21 -5 -16 -12 -20 -34 -17 -20 3 -29 0 -29 -9 0 -9 -13 -13 -40
-13 -27 0 -43 -5 -46 -15 -4 -8 -16 -15 -29 -15 -13 0 -25 -7 -29 -15 -3 -10
-19 -15 -46 -15 -29 0 -40 -4 -40 -15 0 -10 -10 -15 -30 -15 -20 0 -30 -5 -30
-15 0 -11 -12 -15 -45 -15 -30 0 -45 -4 -45 -13 0 -7 -11 -13 -27 -12 -18 0
-28 -5 -28 -15 0 -10 -13 -16 -42 -18 -29 -2 -43 -8 -43 -18 0 -9 -11 -14 -36
-14 -21 0 -33 -4 -29 -10 4 -6 -12 -10 -39 -10 -39 0 -46 -3 -46 -20 0 -16 -7
-20 -30 -20 -16 0 -30 -4 -30 -10 0 -5 -18 -10 -40 -10 -29 0 -40 -4 -40 -15
0 -10 -11 -15 -35 -15 -29 0 -35 -4 -35 -21 0 -20 -4 -21 -45 -17 -33 4 -45 2
-45 -8 0 -8 -16 -14 -42 -16 -28 -2 -42 -7 -40 -15 1 -8 -9 -13 -28 -13 -16 0
-30 -4 -30 -9 0 -6 -19 -11 -42 -13 -30 -2 -43 -8 -43 -18 0 -10 -12 -16 -32
-18 -21 -2 -33 -9 -33 -18 0 -10 -13 -14 -45 -14 -25 0 -45 -4 -45 -9 0 -5
-12 -11 -27 -13 -17 -2 -28 -9 -28 -18 0 -10 -13 -16 -42 -18 -29 -2 -43 -8
-43 -18 0 -8 -9 -14 -20 -14 -11 0 -20 7 -20 15 0 11 -11 15 -41 15 -32 0 -42
4 -46 20 -3 13 -14 20 -29 20 -13 0 -24 5 -24 10 0 6 -20 10 -45 10 -33 0 -45
4 -45 15 0 10 -10 15 -29 15 -20 0 -30 6 -34 20 -4 16 -14 20 -46 20 -23 0
-41 5 -41 10 0 6 -13 10 -30 10 -20 0 -30 5 -30 15 0 9 -9 15 -24 15 -13 0
-26 6 -28 12 -3 8 -20 11 -46 9 -37 -2 -42 0 -42 18 0 16 -6 21 -29 21 -16 0
-31 6 -35 15 -3 10 -19 15 -46 15 -22 0 -40 5 -40 10 0 6 -13 10 -30 10 -23 0
-30 4 -30 20 0 17 -7 20 -46 20 -27 0 -43 4 -39 10 4 6 -6 10 -24 10 -16 0
-34 6 -38 14 -4 8 -26 16 -48 18 -27 2 -40 8 -40 18 0 10 -10 15 -28 15 -16
-1 -27 5 -27 12 0 9 -15 13 -45 13 -33 0 -45 4 -45 15 0 10 -10 15 -30 15 -20
0 -30 5 -30 15 0 9 -9 15 -25 15 -14 0 -28 7 -31 15 -4 10 -20 15 -45 15 -28
0 -39 4 -39 15 0 11 -11 15 -36 15 -21 0 -33 4 -29 10 4 6 -11 10 -38 10 -36
0 -46 4 -50 20 -3 14 -14 20 -31 20 -16 0 -26 6 -26 15 0 11 -12 15 -46 15
-27 0 -43 4 -39 10 4 6 -8 10 -29 10 -29 0 -36 4 -36 20 0 17 -7 20 -45 20
-33 0 -45 4 -45 15 0 9 -9 15 -24 15 -14 0 -28 5 -31 10 -3 6 -24 10 -46 10
-28 0 -39 4 -39 15 0 10 -10 15 -30 15 -20 0 -30 5 -30 15 0 10 -10 15 -30 15
-20 0 -30 5 -30 15 0 11 -12 15 -46 15 -37 0 -45 3 -40 15 4 11 -2 15 -24 15
-20 0 -30 5 -30 15 0 11 -12 15 -45 15 -33 0 -45 4 -45 15 0 10 -10 15 -30 15
-16 0 -33 7 -38 16 -7 12 -19 15 -42 12 -26 -4 -34 -1 -38 14 -3 12 -14 18
-33 18 -19 0 -29 5 -29 15 0 11 -12 15 -46 15 -27 0 -43 4 -39 10 4 6 -7 10
-25 10 -18 0 -33 6 -36 15 -4 10 -20 15 -46 15 -31 0 -41 4 -45 20 -3 13 -14
20 -29 20 -13 0 -24 5 -24 10 0 6 -13 10 -30 10 -20 0 -30 5 -30 15 0 11 -12
15 -44 15 -35 0 -45 4 -49 20 -3 14 -14 20 -31 20 -14 0 -26 5 -26 10 0 6 -18
10 -39 10 -24 0 -41 5 -44 14 -3 8 -18 16 -34 18 -15 2 -27 8 -26 15 3 13 -51
28 -67 18 -5 -3 -13 1 -16 9 -4 9 -18 16 -34 16 -16 0 -30 7 -34 15 -3 10 -19
15 -45 15 -32 0 -39 3 -35 15 5 12 -2 15 -30 15 -25 0 -36 4 -36 15 0 11 -12
15 -45 15 -25 0 -45 4 -45 9 0 5 -14 14 -31 20 -17 6 -28 14 -25 19 3 5 -8 6
-25 4 -24 -4 -29 -1 -29 17 0 18 -6 21 -45 21 -25 0 -45 5 -45 10 0 6 -13 10
-30 10 -20 0 -30 5 -30 15 0 11 -12 15 -45 15 -38 0 -45 3 -45 20 0 15 -7 20
-25 20 -14 0 -25 5 -25 10 0 6 -20 10 -45 10 -32 0 -45 4 -45 14 0 9 -12 16
-32 18 -21 2 -33 8 -33 18 0 10 -13 16 -42 18 -24 2 -43 7 -43 13 0 5 -13 9
-30 9 -20 0 -30 5 -30 15 0 11 -12 15 -45 15 -33 0 -45 4 -45 15 0 9 -9 15
-25 15 -14 0 -28 7 -31 15 -4 8 -16 15 -29 15 -13 0 -25 7 -29 15 -3 10 -19
15 -46 15 -22 0 -40 5 -40 10 0 6 -13 10 -30 10 -23 0 -30 4 -30 20 0 17 -7
20 -44 20 -30 0 -46 5 -50 15 -3 8 -17 15 -31 15 -14 0 -25 5 -25 10 0 6 -17
10 -39 10 -30 0 -40 4 -44 20 -4 15 -14 20 -36 20 -17 0 -31 5 -31 10 0 6 -18
10 -40 10 -29 0 -40 4 -40 15 0 10 -10 15 -30 15 -24 0 -30 4 -30 21 0 18 -5
20 -42 18 -29 -2 -42 1 -41 9 2 8 -10 12 -32 12 -24 0 -35 5 -35 15 0 10 -10
15 -31 15 -23 0 -30 4 -26 14 5 12 -5 16 -41 18 -31 2 -46 7 -45 16 2 7 -8 12
-27 12 -20 0 -30 5 -30 15 0 11 -12 15 -45 15 -25 0 -45 5 -45 10 0 6 -12 10
-26 10 -17 0 -28 6 -31 20 -4 16 -14 20 -49 20 -32 0 -44 4 -44 15 0 9 -9 15
-25 15 -14 0 -25 5 -25 10 0 6 -20 10 -44 10 -36 0 -45 4 -49 21 -3 12 -13 20
-24 19 -33 -4 -43 0 -43 15 0 11 -11 15 -39 15 -22 0 -43 5 -46 10 -3 6 -17
10 -31 10 -15 0 -24 6 -24 15 0 10 -10 15 -30 15 -20 0 -30 5 -30 15 0 11 -12
15 -45 15 -33 0 -45 4 -45 15 0 10 -10 15 -31 15 -24 0 -30 4 -25 15 4 12 -4
15 -39 15 -33 0 -45 4 -45 15 0 10 -10 15 -30 15 -20 0 -30 5 -30 15 0 11 -12
15 -45 15 -25 0 -45 5 -45 10 0 6 -12 10 -26 10 -18 0 -28 6 -31 21 -5 17 -12
20 -44 17 -30 -3 -39 0 -42 14 -4 13 -15 18 -37 18 -18 0 -29 4 -25 10 4 6
-12 10 -39 10 -33 0 -46 4 -46 14 0 9 -12 16 -32 18 -21 2 -33 8 -33 18 0 9
-11 16 -28 18 -15 2 -27 8 -27 13 0 5 -20 9 -45 9 -33 0 -45 4 -45 15 0 10
-10 15 -29 15 -20 0 -30 6 -34 20 -4 16 -14 20 -46 20 -23 0 -41 5 -41 10 0 6
-11 10 -24 10 -13 0 -26 7 -30 15 -3 10 -19 15 -46 15 -29 0 -40 4 -40 15 0
10 -10 15 -30 15 -20 0 -30 5 -30 15 0 11 -12 15 -44 15 -30 0 -46 5 -50 15
-3 8 -14 15 -25 15 -10 0 -22 7 -25 16 -5 12 -16 15 -46 12 -31 -3 -40 0 -43
14 -4 12 -15 18 -36 18 -17 0 -31 5 -31 10 0 6 -11 10 -25 10 -16 0 -25 6 -25
15 0 11 -12 15 -45 15 -38 0 -45 3 -45 20 0 16 -7 20 -30 20 -16 0 -30 5 -30
10 0 6 -20 10 -45 10 -32 0 -45 4 -45 14 0 9 -12 16 -27 18 -17 2 -28 9 -28
18 0 10 -13 16 -42 18 -24 2 -43 7 -43 13 0 5 -13 9 -30 9 -20 0 -30 5 -30 15
0 11 -12 15 -44 15 -35 0 -45 4 -49 20 -3 14 -14 20 -31 20 -14 0 -26 5 -26
10 0 6 -20 10 -45 10 -30 0 -44 4 -42 12 1 7 -12 15 -31 18 -18 3 -34 10 -35
15 -1 6 -12 9 -25 7 -17 -2 -25 3 -29 17 -4 17 -13 21 -49 21 -32 0 -44 4 -44
15 0 9 -9 15 -25 15 -14 0 -25 5 -25 10 0 6 -20 10 -45 10 -38 0 -45 3 -45 20
0 16 -7 20 -30 20 -16 0 -30 5 -30 10 0 6 -18 10 -40 10 -27 0 -43 5 -46 15
-4 8 -16 15 -29 15 -15 0 -25 7 -28 21 -5 18 -12 21 -46 17 -29 -2 -41 0 -41
9 0 9 -15 13 -45 13 -43 0 -45 -1 -45 -30 0 -16 -4 -30 -10 -30 -5 0 -10 -7
-10 -15 0 -8 -7 -15 -15 -15 -8 0 -15 -4 -15 -10 0 -5 -13 -10 -30 -10 -23 0
-30 -4 -30 -20 0 -11 -7 -20 -15 -20 -8 0 -15 -4 -15 -9 0 -5 -9 -11 -21 -14
-12 -3 -18 -10 -14 -16 3 -6 -1 -11 -9 -11 -10 0 -16 -9 -16 -21 0 -15 -5 -19
-15 -15 -9 3 -15 0 -15 -9 0 -8 -7 -15 -15 -15 -8 0 -15 -7 -15 -15 0 -8 -7
-15 -15 -15 -8 0 -15 -7 -15 -15 0 -8 -7 -15 -16 -15 -8 0 -12 -5 -9 -11 4 -6
-2 -13 -14 -16 -17 -4 -21 -13 -21 -49 l0 -44 45 0 c39 0 45 -3 45 -21 0 -18
5 -21 30 -17 20 3 30 0 30 -9 0 -9 14 -13 45 -13 33 0 45 -4 45 -15 0 -10 10
-15 31 -15 24 0 30 -4 25 -15 -4 -11 2 -15 24 -15 20 0 30 -5 30 -15 0 -11 12
-15 45 -15 33 0 45 -4 45 -15 0 -10 10 -15 30 -15 21 0 30 -5 30 -16 0 -12 9
-15 43 -13 34 3 42 0 41 -14 -1 -13 6 -17 32 -17 22 0 33 -4 31 -12 -1 -9 14
-14 46 -16 26 -2 45 -7 42 -13 -4 -5 8 -9 24 -9 28 0 36 -8 32 -32 0 -5 22 -8
49 -8 35 0 49 -4 47 -12 -1 -8 10 -14 25 -16 16 -2 28 -8 28 -13 0 -5 14 -9
30 -9 20 0 30 -5 30 -15 0 -11 11 -15 40 -15 29 0 42 -5 50 -20 6 -11 19 -20
30 -20 10 0 22 -4 25 -10 3 -5 24 -10 46 -10 28 0 39 -4 39 -15 0 -10 10 -15
30 -15 20 0 30 -5 30 -15 0 -11 12 -15 45 -15 33 0 45 -4 45 -15 0 -10 10 -15
31 -15 16 0 28 -4 25 -9 -7 -10 17 -21 45 -21 10 0 19 -7 19 -15 0 -11 12 -15
45 -15 33 0 45 -4 45 -15 0 -10 10 -15 30 -15 17 0 30 -4 30 -10 0 -5 18 -10
40 -10 34 0 40 -3 40 -21 0 -17 5 -19 30 -15 25 3 30 1 30 -15 0 -16 7 -19 45
-19 25 0 45 -4 45 -10 0 -5 14 -10 30 -10 20 0 30 -5 30 -15 0 -9 9 -15 24
-15 15 0 26 -7 29 -20 4 -16 14 -20 46 -20 23 0 41 -4 41 -10 0 -5 13 -10 30
-10 16 0 33 -6 37 -14 4 -8 26 -16 48 -18 27 -2 40 -8 40 -18 0 -9 11 -16 28
-18 15 -2 27 -8 27 -13 0 -5 20 -9 45 -9 31 0 44 -4 42 -12 -1 -8 11 -14 31
-16 20 -2 32 -9 32 -18 0 -8 10 -14 25 -14 16 0 25 -6 25 -15 0 -11 12 -15 44
-15 30 0 46 -5 50 -15 3 -8 17 -15 31 -15 14 0 25 -4 25 -10 0 -5 20 -10 45
-10 38 0 45 -3 45 -20 0 -16 7 -20 30 -20 17 0 30 -4 30 -10 0 -5 18 -10 40
-10 32 0 40 -4 40 -18 0 -15 6 -18 29 -14 22 3 29 -1 34 -17 4 -16 13 -21 36
-21 17 0 31 -4 31 -10 0 -5 18 -10 39 -10 25 0 41 -5 45 -15 3 -8 16 -15 30
-15 15 0 25 -7 29 -20 4 -16 14 -20 46 -20 23 0 41 -4 41 -10 0 -5 14 -10 30
-10 20 0 30 -5 30 -15 0 -11 12 -15 45 -15 32 0 45 -4 45 -14 0 -19 32 -30 42
-14 5 9 8 6 8 -9 0 -20 5 -23 35 -23 23 0 34 -4 32 -13 -1 -8 13 -13 41 -15
26 -2 42 -8 42 -16 0 -8 9 -12 24 -9 17 4 25 0 29 -16 4 -17 13 -21 51 -21 31
0 45 -4 43 -13 -1 -7 11 -13 31 -15 17 -2 32 -7 32 -13 0 -5 18 -9 41 -9 32 0
42 -4 46 -20 3 -13 14 -20 29 -20 13 0 24 -4 24 -10 0 -5 14 -10 30 -10 20 0
30 -5 30 -15 0 -11 12 -15 44 -15 35 0 45 -4 49 -19 3 -14 11 -18 26 -14 14 3
23 0 27 -11 4 -11 18 -16 45 -16 26 0 42 -5 45 -15 4 -8 17 -15 30 -15 15 0
24 -6 24 -15 0 -11 12 -15 45 -15 33 0 45 -4 45 -15 0 -10 10 -15 30 -15 20 0
30 -5 30 -15 0 -10 10 -15 30 -15 17 0 30 -4 30 -10 0 -5 20 -10 45 -10 38 0
45 -3 45 -20 0 -16 7 -20 30 -20 20 0 30 -5 30 -15 0 -11 12 -15 45 -15 25 0
45 -4 45 -10 0 -5 11 -10 24 -10 15 0 26 -7 29 -20 5 -18 11 -20 45 -14 34 5
40 3 45 -15 3 -15 13 -21 31 -21 14 0 26 -4 26 -10 0 -5 13 -10 30 -10 19 0
29 -5 27 -12 -1 -9 13 -14 41 -16 27 -2 42 -8 42 -17 0 -14 21 -25 51 -25 10
0 19 -4 19 -10 0 -5 20 -10 45 -10 30 0 44 -4 42 -12 -1 -7 12 -15 28 -18 17
-3 29 -11 28 -18 -2 -8 11 -12 36 -12 25 0 41 -5 45 -15 3 -8 17 -15 31 -15
15 0 33 -7 41 -15 9 -8 24 -15 35 -15 10 0 19 -7 19 -15 0 -11 12 -15 45 -15
33 0 45 -4 45 -15 0 -9 9 -15 25 -15 14 0 25 -4 25 -10 0 -5 20 -10 45 -10 33
0 45 -4 45 -15 0 -9 10 -15 26 -15 17 0 28 -6 31 -20 4 -16 14 -20 49 -20 24
0 44 -4 44 -10 0 -5 13 -10 30 -10 22 0 28 -4 24 -15 -5 -12 3 -15 39 -15 36
0 46 -4 50 -20 4 -15 14 -20 36 -20 17 0 31 -4 31 -10 0 -5 11 -10 25 -10 16
0 25 -6 25 -15 0 -11 12 -15 45 -15 34 0 45 -4 45 -15 0 -9 12 -18 30 -21 17
-4 30 -10 30 -15 0 -5 20 -9 45 -9 32 0 45 -4 45 -14 0 -9 12 -16 27 -18 17
-2 27 -8 25 -17 -2 -10 8 -12 43 -9 38 3 45 0 45 -14 0 -13 8 -18 29 -18 16 0
31 -6 35 -15 3 -8 17 -15 31 -15 14 0 25 -6 25 -12 0 -9 15 -13 42 -13 31 0
43 -4 43 -15 0 -10 12 -16 33 -18 17 -2 32 -7 32 -13 0 -5 20 -9 45 -9 32 0
45 -4 45 -14 0 -9 12 -16 28 -18 16 -2 27 -9 27 -18 0 -11 13 -16 48 -18 26
-2 45 -7 42 -13 -4 -5 8 -9 24 -9 21 0 31 -5 31 -15 0 -10 10 -15 29 -15 20 0
30 -6 34 -20 4 -16 14 -20 46 -20 23 0 41 -4 41 -10 0 -5 11 -10 24 -10 13 0
26 -7 30 -15 3 -10 19 -15 45 -15 27 0 41 -5 45 -16 4 -11 13 -14 27 -11 13 4
24 -1 32 -14 8 -13 23 -19 48 -19 24 0 39 -5 43 -15 3 -8 17 -15 31 -15 14 0
25 -4 25 -10 0 -5 14 -10 30 -10 23 0 30 -4 30 -20 0 -17 7 -20 44 -20 30 0
46 -5 50 -15 3 -8 17 -15 31 -15 14 0 25 -4 25 -10 0 -5 17 -10 39 -10 31 0
40 -4 44 -21 5 -17 11 -20 31 -17 18 4 26 1 26 -8 0 -10 14 -14 45 -14 33 0
45 -4 45 -15 0 -10 10 -15 30 -15 20 0 30 -5 30 -15 0 -9 9 -15 25 -15 14 0
28 -7 31 -15 4 -10 20 -15 45 -15 28 0 39 -4 39 -15 0 -11 11 -15 36 -15 27 0
35 -3 31 -14 -5 -12 5 -16 41 -18 31 -2 46 -7 44 -15 -1 -8 9 -13 28 -13 20 0
30 -5 30 -15 0 -11 12 -15 45 -15 25 0 45 -4 45 -10 0 -5 12 -10 26 -10 18 0
28 -6 31 -21 4 -15 12 -20 29 -16 16 3 24 -2 27 -15 4 -14 15 -18 46 -18 23 0
41 -4 41 -10 0 -5 14 -10 30 -10 20 0 30 -5 30 -15 0 -11 11 -15 40 -15 29 0
42 -5 50 -20 6 -12 21 -20 35 -20 14 0 25 -4 25 -10 0 -5 20 -10 45 -10 31 0
44 -4 43 -12 -2 -8 9 -14 25 -16 16 -2 31 -10 34 -18 3 -8 16 -14 29 -14 12 0
27 -6 31 -14 4 -8 26 -16 48 -18 25 -2 39 -8 37 -15 -1 -8 9 -13 28 -13 19 0
30 -5 30 -14 0 -9 21 -15 69 -20 91 -8 191 2 191 20 0 9 11 14 30 14 20 0 30
5 30 15 0 11 12 15 45 15 33 0 45 4 45 15 0 10 10 15 30 15 20 0 30 5 30 15 0
11 12 15 45 15 33 0 45 4 45 15 0 9 9 15 25 15 14 0 25 5 25 10 0 6 18 10 40
10 30 0 42 5 51 21 7 14 17 19 31 16 14 -4 22 0 25 14 4 15 14 19 49 19 24 0
44 5 44 10 0 6 11 10 25 10 16 0 25 6 25 15 0 11 12 15 44 15 35 0 45 4 49 20
3 14 14 20 31 20 14 0 26 5 26 10 0 6 20 10 45 10 33 0 45 4 45 15 0 10 10 15
30 15 20 0 30 5 30 15 0 11 12 15 45 15 35 0 43 3 39 15 -5 12 2 15 30 15 25
0 36 4 36 15 0 11 11 15 39 15 25 0 41 5 45 15 3 8 17 15 31 15 16 0 25 6 25
15 0 11 12 15 45 15 33 0 45 4 45 15 0 10 10 15 30 15 18 0 30 5 30 13 0 9 12
11 41 9 34 -4 41 -1 46 17 3 14 13 21 29 21 12 0 26 4 29 10 3 6 22 10 41 10
22 0 37 6 40 15 4 9 19 15 35 15 22 0 29 5 29 20 0 17 7 20 45 20 25 0 45 5
45 10 0 6 14 10 30 10 20 0 30 5 30 15 0 11 12 15 45 15 37 0 45 3 45 18 0 15
6 18 30 14 25 -3 29 -1 24 12 -5 13 2 16 40 16 34 0 46 4 46 15 0 10 10 15 29
15 16 0 31 6 33 12 3 8 19 12 42 10 31 -3 38 0 43 17 4 15 13 21 34 21 19 0
29 5 29 15 0 11 12 15 46 15 27 0 43 4 39 10 -4 6 7 10 25 10 23 0 33 5 37 20
4 16 14 20 44 20 26 0 42 5 45 15 4 8 17 15 30 15 13 0 24 5 24 10 0 6 20 10
45 10 38 0 45 3 45 20 0 16 7 20 30 20 17 0 30 5 30 10 0 6 18 10 40 10 27 0
43 5 46 15 4 8 17 15 30 15 15 0 24 6 24 15 0 11 12 15 45 15 33 0 45 4 45 15
0 10 10 15 30 15 20 0 30 5 30 15 0 11 12 15 45 15 25 0 45 4 45 9 0 5 14 11
30 15 17 3 29 11 28 18 -2 9 12 14 40 16 28 2 42 8 42 18 0 9 11 14 35 14 19
0 35 5 35 10 0 6 18 10 41 10 33 0 42 4 46 21 5 16 12 20 35 17 24 -4 27 -2
22 14 -5 16 1 18 40 18 25 0 46 4 46 9 0 6 18 11 40 13 22 2 40 7 39 12 -1 13
23 26 49 26 13 0 22 6 22 15 0 11 12 15 45 15 25 0 45 5 45 10 0 6 11 10 25
10 16 0 25 6 25 15 0 11 12 15 45 15 33 0 45 4 45 15 0 8 9 15 19 15 11 0 26
7 35 15 8 8 32 15 55 15 30 0 41 4 41 15 0 10 10 15 30 15 19 0 29 5 27 13 -1
8 13 13 41 15 28 2 42 8 42 18 0 9 11 14 30 14 17 0 30 5 30 10 0 6 13 10 29
10 40 0 61 9 61 27 0 11 8 14 30 11 27 -4 35 2 31 25 0 4 17 7 38 7 22 0 43 4
46 10 3 6 18 10 32 10 17 0 27 7 30 21 5 18 11 21 46 16 33 -5 40 -2 44 14 3
12 14 19 29 19 13 0 24 4 24 9 0 6 21 11 48 13 31 2 46 7 45 16 -2 7 8 12 27
12 23 0 30 4 30 20 0 17 7 20 45 20 25 0 45 5 45 10 0 6 14 10 30 10 20 0 30
5 30 15 0 11 11 15 39 15 25 0 41 5 45 15 3 8 17 15 31 15 16 0 25 6 25 15 0
11 12 15 45 15 33 0 45 4 45 15 0 10 10 15 30 15 20 0 30 5 30 15 0 11 12 15
45 15 33 0 45 4 45 15 0 9 9 15 24 15 13 0 26 7 30 15 3 10 19 15 46 15 22 0
40 4 40 9 0 6 15 11 33 13 23 2 32 8 31 21 -2 14 6 17 42 17 24 0 44 5 44 10
0 6 11 10 25 10 14 0 28 7 31 15 4 10 20 15 46 15 31 0 41 4 45 20 4 14 14 20
34 20 16 0 29 5 29 10 0 6 18 10 40 10 27 0 43 5 46 15 4 8 16 15 29 15 13 0
25 7 29 15 3 8 12 12 21 9 23 -9 65 4 65 21 0 10 10 15 30 15 20 0 30 5 30 15
0 11 12 15 45 15 30 0 45 4 45 13 0 7 11 13 27 12 18 0 28 5 28 15 0 10 13 16
43 18 28 2 42 8 42 18 0 9 11 14 30 14 17 0 30 5 30 10 0 6 20 10 45 10 38 0
45 3 45 20 0 15 7 20 29 20 16 0 31 6 35 15 3 9 19 15 41 15 19 0 35 5 35 10
0 6 16 10 35 10 28 0 35 4 35 20 0 17 7 20 45 20 25 0 45 5 45 10 0 6 11 10
25 10 16 0 25 6 25 15 0 11 12 15 45 15 33 0 45 4 45 15 0 10 10 15 30 15 20
0 30 5 30 15 0 11 12 15 45 15 33 0 45 4 45 15 0 10 10 15 30 15 17 0 30 4 30
9 0 6 19 11 43 13 29 2 42 8 42 18 0 9 11 16 28 18 15 2 27 9 27 18 0 10 13
14 45 14 25 0 45 5 45 10 0 6 14 10 30 10 24 0 30 4 30 21 0 19 5 21 45 17 38
-3 45 0 45 14 0 13 8 18 25 18 14 0 25 5 25 10 0 6 20 10 45 10 33 0 45 4 45
15 0 15 10 19 43 15 11 -1 21 7 24 19 4 17 13 21 44 21 22 0 39 5 39 10 0 6
14 10 30 10 20 0 30 5 30 15 0 11 12 15 45 15 33 0 45 4 45 15 0 9 9 15 25 15
14 0 28 7 31 15 4 10 20 15 50 15 32 0 44 4 44 15 0 9 9 15 25 15 16 0 25 6
25 15 0 11 12 15 45 15 33 0 45 4 45 15 0 10 10 15 30 15 17 0 30 5 30 10 0 6
18 10 41 10 33 0 42 4 46 21 5 16 12 20 33 17 20 -3 27 0 26 11 -1 12 10 17
42 19 23 2 42 7 42 12 0 5 15 10 33 12 20 2 32 8 32 18 0 11 10 14 43 12 37
-3 42 -1 42 17 0 17 6 21 30 21 17 0 30 4 30 9 0 6 19 11 43 13 27 2 41 7 40
16 -2 7 8 12 27 12 20 0 33 6 38 18 5 12 18 17 47 17 27 0 39 4 38 13 -2 7 8
12 27 12 20 0 30 5 30 15 0 11 12 15 44 15 30 0 46 5 50 15 3 8 17 15 31 15
16 0 25 6 25 15 0 11 12 15 45 15 33 0 45 4 45 15 0 10 10 15 30 15 18 0 29 5
27 12 -1 8 12 11 39 9 34 -2 42 1 47 18 3 15 13 21 31 21 14 0 26 5 26 10 0 6
9 10 19 10 28 0 52 11 45 21 -3 5 15 9 40 9 43 0 51 6 47 33 0 4 12 7 29 7 17
0 30 4 30 9 0 6 19 11 43 13 27 2 41 7 40 16 -2 8 9 12 32 12 27 0 35 4 35 18
0 13 9 17 42 17 29 0 42 4 41 13 -2 7 8 12 27 12 20 0 30 5 30 15 0 11 12 15
45 15 25 0 45 5 45 10 0 6 12 10 26 10 17 0 28 6 31 20 4 16 14 20 49 20 32 0
44 4 44 15 0 9 9 15 25 15 14 0 25 5 25 10 0 6 14 10 30 10 23 0 30 4 30 20 0
14 7 20 21 20 17 0 20 5 17 25 -3 14 -1 25 3 25 5 0 9 29 9 65 0 36 -4 65 -8
65 -4 0 -8 12 -7 28 0 21 -5 28 -25 30 -14 2 -29 10 -33 18 -4 8 -15 14 -22
14 -8 0 -15 5 -15 10 0 6 -11 10 -24 10 -15 0 -26 7 -29 20 -3 13 -14 20 -30
20 -14 0 -27 7 -31 15 -3 10 -19 15 -46 15 -22 0 -40 5 -40 10 0 6 -13 10 -30
10 -16 0 -29 3 -29 8 4 22 -5 27 -46 27 -25 0 -46 -1 -46 -2z"/>
</g>
</svg>
