<?xml version="1.0" standalone="no"?>
<!DOCTYPE svg PUBLIC "-//W3C//DTD SVG 20010904//EN"
 "http://www.w3.org/TR/2001/REC-SVG-20010904/DTD/svg10.dtd">
<svg version="1.0" xmlns="http://www.w3.org/2000/svg"
 width="2402.000000pt" height="1801.000000pt" viewBox="0 0 2402.000000 1801.000000"
 preserveAspectRatio="xMidYMid meet">
<metadata>
Created by potrace 1.15, written by Peter Selinger 2001-2017
</metadata>
<g transform="translate(0.000000,1801.000000) scale(0.100000,-0.100000)"
fill="#000000" stroke="none">
<path d="M4480 7203 c0 -17 -12 -18 -145 -15 -126 3 -145 1 -145 -12 0 -12
-11 -16 -45 -16 -33 0 -45 -4 -45 -15 0 -12 -13 -15 -60 -15 -47 0 -60 -3 -60
-15 0 -10 -10 -15 -30 -15 -19 0 -29 -5 -28 -12 2 -9 -12 -14 -39 -16 -29 -2
-43 -8 -43 -18 0 -9 -11 -14 -30 -14 -16 0 -30 -4 -30 -10 0 -5 -14 -10 -31
-10 -23 0 -32 -5 -36 -21 -4 -16 -12 -20 -29 -16 -18 3 -24 0 -24 -14 0 -14
-7 -19 -30 -19 -16 0 -30 -4 -30 -10 0 -5 -12 -10 -26 -10 -17 0 -28 -6 -31
-20 -3 -11 -12 -20 -19 -20 -8 0 -14 -7 -14 -15 0 -9 -9 -15 -25 -15 -14 0
-25 -4 -25 -10 0 -5 -7 -10 -16 -10 -9 0 -18 -9 -21 -20 -3 -11 -9 -18 -13
-15 -4 3 -10 -2 -13 -9 -3 -8 -18 -16 -34 -18 -16 -2 -27 -8 -26 -15 2 -7 -4
-13 -12 -13 -8 0 -15 -7 -15 -15 0 -8 -6 -15 -14 -15 -8 0 -16 -7 -20 -15 -3
-8 -17 -15 -31 -15 -16 0 -25 -6 -25 -15 0 -8 -7 -15 -15 -15 -8 0 -15 -7 -15
-15 0 -8 -4 -15 -10 -15 -13 0 -50 -37 -50 -50 0 -5 -5 -10 -10 -10 -14 0 -57
-40 -44 -41 5 0 -1 -4 -13 -9 -13 -5 -23 -16 -23 -25 0 -8 -7 -15 -16 -15 -8
0 -12 -4 -9 -10 3 -5 -1 -10 -9 -10 -9 0 -16 -7 -16 -15 0 -8 -9 -15 -20 -15
-14 0 -20 -7 -20 -21 0 -11 -4 -17 -10 -14 -5 3 -10 -1 -10 -9 0 -9 -7 -16
-15 -16 -8 0 -15 -7 -15 -15 0 -8 -4 -15 -10 -15 -13 0 -50 -37 -50 -50 0 -5
-7 -10 -15 -10 -8 0 -15 -7 -15 -15 0 -8 -9 -15 -20 -15 -11 0 -19 -6 -18 -12
2 -7 -3 -12 -9 -10 -9 1 -13 -10 -13 -33 0 -24 -5 -35 -15 -35 -8 0 -15 -4
-15 -10 0 -5 -7 -10 -15 -10 -8 0 -15 -9 -15 -20 0 -11 -5 -20 -11 -20 -14 0
-69 -55 -69 -69 0 -6 -4 -11 -8 -11 -14 0 -57 -41 -54 -51 1 -5 -5 -9 -13 -9
-8 0 -15 -4 -15 -9 0 -5 -9 -13 -20 -16 -11 -4 -18 -10 -15 -15 3 -5 -4 -14
-15 -20 -11 -6 -18 -15 -15 -21 4 -5 -4 -9 -16 -9 -19 0 -21 -4 -15 -30 5 -28
3 -30 -24 -30 -20 0 -30 -5 -30 -15 0 -8 -7 -15 -15 -15 -8 0 -15 -4 -15 -10
0 -5 -7 -10 -15 -10 -8 0 -15 -7 -15 -15 0 -9 -7 -18 -15 -21 -8 -4 -15 -12
-15 -20 0 -8 -4 -14 -10 -14 -15 0 -50 -33 -44 -42 6 -9 -8 -11 -43 -8 -15 1
-23 -4 -23 -14 0 -9 -4 -16 -10 -16 -5 0 -10 -7 -10 -15 0 -8 -6 -15 -13 -15
-7 0 -24 -13 -37 -30 -14 -16 -35 -29 -47 -30 -14 0 -23 -6 -23 -15 0 -8 -7
-15 -15 -15 -8 0 -15 -4 -15 -10 0 -5 -12 -10 -26 -10 -17 0 -28 -6 -31 -20
-3 -11 -12 -20 -19 -20 -8 0 -14 -7 -14 -15 0 -8 -8 -15 -18 -15 -32 0 -72
-24 -72 -44 0 -15 -6 -17 -29 -14 -17 2 -30 2 -29 -1 2 -23 -6 -31 -32 -31
-16 0 -30 -4 -30 -10 0 -5 -11 -10 -24 -10 -15 0 -26 -7 -29 -19 -3 -14 -11
-17 -31 -14 -21 4 -26 2 -26 -16 0 -17 -6 -21 -36 -21 -21 0 -33 -4 -29 -10 4
-6 -12 -10 -39 -10 -34 0 -46 -4 -46 -15 0 -11 -12 -15 -45 -15 -31 0 -44 -4
-42 -12 1 -9 -17 -15 -58 -18 -59 -5 -60 -5 -63 -38 l-3 -33 118 3 c92 2 118
6 118 17 0 11 23 13 113 12 107 -2 114 -1 119 18 5 19 13 21 94 21 53 0 89 4
89 10 0 6 11 10 25 10 16 0 25 6 25 15 0 11 12 15 45 15 33 0 45 4 45 15 0 11
11 15 40 15 27 0 43 5 46 15 4 10 20 15 50 15 32 0 44 -4 44 -15 0 -8 -7 -15
-15 -15 -8 0 -15 -9 -15 -20 0 -24 -29 -60 -48 -60 -7 0 -10 -5 -7 -11 4 -6
-2 -13 -14 -16 -12 -3 -21 -9 -21 -14 0 -14 -33 -49 -47 -49 -7 0 -10 -7 -7
-15 4 -8 1 -15 -5 -15 -6 0 -22 -10 -36 -22 -18 -15 -23 -28 -19 -45 5 -17 2
-23 -10 -23 -9 0 -16 -4 -16 -10 0 -5 -7 -10 -15 -10 -8 0 -15 -7 -15 -15 0
-8 -7 -15 -15 -15 -9 0 -15 -9 -15 -21 0 -15 -5 -19 -16 -15 -9 3 -12 2 -9 -5
4 -6 -2 -13 -14 -16 -12 -3 -21 -12 -21 -19 0 -8 -7 -14 -15 -14 -8 0 -15 -9
-15 -19 0 -12 -7 -18 -17 -17 -14 1 -18 -7 -18 -29 0 -25 4 -30 28 -33 22 -3
30 1 34 17 4 14 13 21 30 21 25 0 53 21 53 39 0 6 16 11 35 11 29 0 35 4 35
21 0 11 5 17 10 14 6 -3 10 1 10 9 0 9 12 16 33 18 19 2 31 8 30 16 -2 7 7 12
22 12 27 0 65 27 65 47 0 8 12 13 30 13 17 0 30 5 30 11 0 19 28 39 55 39 19
0 29 6 32 21 3 12 11 18 19 15 8 -3 13 -2 13 2 -4 24 4 32 32 32 17 0 28 4 24
10 -3 6 0 10 8 10 8 0 17 8 20 19 3 14 11 17 31 14 21 -4 26 -2 26 16 0 12 6
21 15 21 8 0 15 4 15 9 0 5 9 11 21 14 12 3 18 10 14 16 -4 7 5 11 24 11 17 0
31 5 31 10 0 13 37 50 50 50 5 0 10 7 10 15 0 10 10 15 31 15 19 0 28 4 24 11
-4 6 2 13 14 16 12 3 21 12 21 19 0 8 7 14 15 14 8 0 15 4 15 9 0 5 12 11 28
13 16 2 26 8 24 16 -1 8 7 16 18 19 13 3 19 11 16 19 -3 8 1 14 9 14 8 0 15 5
15 10 0 6 6 10 14 10 7 0 16 8 19 19 3 14 11 17 31 14 21 -4 26 -2 26 16 0 12
6 21 15 21 8 0 15 5 15 10 0 6 7 10 15 10 8 0 15 7 15 15 0 8 7 15 15 15 8 0
15 9 15 20 0 14 5 18 17 13 11 -4 14 -3 9 6 -5 8 -1 14 13 18 12 3 21 12 21
19 0 8 7 14 15 14 8 0 15 7 15 15 0 8 7 15 15 15 9 0 12 6 9 15 -4 10 0 15 10
15 9 0 19 7 22 15 4 8 12 15 20 15 8 0 14 7 14 16 0 8 5 12 10 9 6 -3 10 3 10
14 0 12 7 21 15 21 8 0 15 4 15 9 0 5 9 11 21 14 12 3 18 10 14 16 -3 6 1 11
9 11 9 0 16 9 16 20 0 14 7 20 21 20 17 0 20 5 17 25 -4 16 -1 25 8 25 7 0 16
9 19 20 4 11 11 18 16 15 5 -4 9 -1 9 4 0 14 37 51 50 51 6 0 10 4 10 9 0 5
12 11 28 13 15 2 27 8 27 13 0 13 42 55 55 55 6 0 10 7 10 16 0 8 4 13 9 10 5
-3 11 3 14 14 4 15 14 20 36 20 17 0 31 5 31 11 0 14 25 39 39 39 6 0 11 5 11
11 0 20 72 79 97 79 16 0 27 7 30 20 3 11 9 17 14 14 5 -3 9 2 9 10 0 10 9 16
25 16 14 0 28 7 31 15 4 9 19 15 35 15 16 0 29 4 29 9 0 5 14 11 30 15 17 3
30 12 30 20 0 7 7 17 16 20 8 3 12 10 9 16 -4 6 8 10 29 10 20 0 36 5 36 10 0
6 13 10 29 10 41 0 61 9 54 26 -4 11 5 14 41 14 34 0 46 4 46 15 0 11 11 15
40 15 22 0 40 5 40 10 0 6 20 10 44 10 35 0 45 4 49 20 4 16 14 20 46 20 30 0
41 4 41 15 0 12 13 15 60 15 33 0 60 4 60 10 0 6 20 10 44 10 34 0 45 4 48 17
2 14 14 16 71 14 53 -2 68 1 73 13 5 13 24 16 100 16 75 0 96 3 100 15 5 12
26 15 105 15 80 0 99 3 99 15 0 11 21 15 108 17 l107 3 3 28 c3 26 2 27 -43
27 -38 0 -48 4 -52 20 -4 16 -14 20 -49 20 -24 0 -44 5 -44 10 0 6 -18 10 -40
10 -29 0 -40 4 -40 15 0 10 -10 15 -29 15 -20 0 -30 6 -34 20 -4 16 -14 20
-46 20 -23 0 -41 5 -41 10 0 6 -20 10 -45 10 -33 0 -45 4 -45 15 0 11 -11 15
-40 15 -27 0 -43 5 -46 15 -4 8 -16 15 -29 15 -13 0 -25 7 -29 15 -3 10 -19
15 -45 15 -25 0 -41 5 -45 15 -3 10 -19 15 -46 15 -30 0 -40 4 -40 16 0 13
-15 15 -100 12 -90 -3 -100 -1 -100 15 0 12 -8 17 -30 17 -22 0 -30 -5 -30
-17z"/>
</g>
</svg>
